<mxfile host="app.diagrams.net" agent="Mozilla/5.0 (Windows NT 10.0; Win64; x64) AppleWebKit/537.36 (KHTML, like Gecko) Chrome/133.0.0.0 Safari/537.36 Edg/133.0.0.0" version="26.0.16">
  <diagram name="AMS - Process Flow Diagrams v0.2" id="4KButZJJZi8Aaj6FEKb-">
    <mxGraphModel dx="825" dy="471" grid="1" gridSize="10" guides="1" tooltips="1" connect="1" arrows="1" fold="1" page="1" pageScale="1" pageWidth="827" pageHeight="1169" math="0" shadow="0">
      <root>
        <mxCell id="0" />
        <mxCell id="1" parent="0" />
        <UserObject label="&lt;div style=&quot;font-size: 1px&quot;&gt;&lt;p style=&quot;text-align:center;margin-left:0;margin-right:0;margin-top:0px;margin-bottom:0px;text-indent:0;vertical-align:middle;direction:ltr;&quot;&gt;&lt;font style=&quot;font-size:11.29px;font-family:Calibri;color:#ffffff;direction:ltr;letter-spacing:0px;line-height:120%;opacity:1&quot;&gt;Start&lt;br/&gt;&lt;/font&gt;&lt;/p&gt;&lt;/div&gt;" tags="Flowchart" id="9h3zB8wG0xILL8Boa0-e-1">
          <mxCell style="verticalAlign=middle;align=center;overflow=width;vsdxID=1;fillColor=#73ae42;gradientColor=none;shape=stencil(tVLLDsIgEPwajiQIMfFe638Qu22JCM2Ctv69kK0Rm9qDibeZndkXC1NV6PUATIoQ0V9gNE3smToyKY3rAU1MiKmaqar1CB36m2uIDzo7M7r6e64wUZ4UOUWKB9GdIH4irzWu8B42vRrPScNFXZzN+5mvl3qJXE8mcPRRR+Pdh2Y1dsBTE95a3c0TkBRGgKEIb6wg1/r+ssCXd/vLCgm8z9caa+n6pb48dwrRV1H1Ew==);strokeColor=#ffffff;spacingTop=-1;spacingBottom=-1;spacingLeft=-1;spacingRight=-1;points=[[0.5,1,0],[0.5,0,0],[0,0.5,0],[1,0.5,0]];labelBackgroundColor=none;rounded=0;html=1;whiteSpace=wrap;" vertex="1" parent="1">
            <mxGeometry x="250" y="138" width="100" height="40" as="geometry" />
          </mxCell>
        </UserObject>
        <UserObject label="&lt;div style=&quot;font-size: 1px&quot;&gt;&lt;p style=&quot;text-align:center;margin-left:0;margin-right:0;margin-top:0px;margin-bottom:0px;text-indent:0;vertical-align:middle;direction:ltr;&quot;&gt;&lt;font style=&quot;font-size:11.29px;font-family:Calibri;color:#ffffff;direction:ltr;letter-spacing:0px;line-height:120%;opacity:1&quot;&gt;Initiation of Support Task&lt;br/&gt;&lt;/font&gt;&lt;/p&gt;&lt;/div&gt;" tags="Flowchart" id="9h3zB8wG0xILL8Boa0-e-2">
          <mxCell style="verticalAlign=middle;align=center;overflow=width;vsdxID=2;fillColor=#5b9bd5;gradientColor=none;shape=stencil(nZBLDoAgDERP0z3SIyjew0SURgSD+Lu9kMZoXLhwN9O+tukAlrNpJg1SzDH4QW/URgNYgZTkjA4UkwJUgGXng+6DX1zLfmoymdXo17xh5zmRJ6Q42BWCfc2oJfdAr+Yv+AP9Cb7OJ3H/2JG1HNGz/84klThPVCc=);strokeColor=#ffffff;spacingTop=-1;spacingBottom=-1;spacingLeft=-1;spacingRight=-1;points=[[0,0.5,0],[1,0.5,0],[0.5,1,0],[0.5,0,0]];labelBackgroundColor=none;rounded=0;html=1;whiteSpace=wrap;" vertex="1" parent="1">
            <mxGeometry x="544" y="128" width="119" height="60" as="geometry" />
          </mxCell>
        </UserObject>
        <UserObject label="" tags="Flowchart" id="9h3zB8wG0xILL8Boa0-e-3">
          <mxCell style="vsdxID=3;fillColor=#73ae42;gradientColor=none;shape=stencil(UzV2Ls5ILEhVNTIoLinKz04tz0wpyVA1dlE1MsrMy0gtyiwBslSNXVWNndPyi1LTi/JL81Ig/IJEkEoQKze/DGRCBUSfAUiHkUElhGcK4bpBVOZk5iGpNEVVikeloQHZpsK0YlWLz1QgA+HFtMycHEgIIcujBwlQCBKcxq4A);strokeColor=#ffffff;spacingTop=-1;spacingBottom=-1;spacingLeft=-1;spacingRight=-1;points=[[1,0.5,0],[0.5,0,0],[0.5,0,0]];labelBackgroundColor=none;rounded=0;html=1;whiteSpace=wrap;" vertex="1" parent="1">
            <mxGeometry x="696" y="120" width="133" height="74" as="geometry" />
          </mxCell>
        </UserObject>
        <mxCell id="9h3zB8wG0xILL8Boa0-e-4" value="&lt;div style=&quot;font-size: 1px&quot;&gt;&lt;p style=&quot;text-align:center;margin-left:0;margin-right:0;margin-top:0px;margin-bottom:0px;text-indent:0;vertical-align:middle;direction:ltr;&quot;&gt;&lt;font style=&quot;font-size:11.29px;font-family:Calibri;color:#ffffff;direction:ltr;letter-spacing:0px;line-height:120%;opacity:1&quot;&gt;is it a new requirement / change in system&lt;br/&gt;&lt;/font&gt;&lt;/p&gt;&lt;/div&gt;" style="text;vsdxID=3;fillColor=none;gradientColor=none;strokeColor=none;spacingTop=-1;spacingBottom=-1;spacingLeft=-1;spacingRight=-1;points=[[1,0.5,0],[0.5,0,0],[0.5,0,0]];labelBackgroundColor=none;rounded=0;html=1;whiteSpace=wrap;verticalAlign=middle;align=center;overflow=width;;html=1;" vertex="1" parent="9h3zB8wG0xILL8Boa0-e-3">
          <mxGeometry x="11.15" y="8.55" width="111.53" height="56.1" as="geometry" />
        </mxCell>
        <UserObject label="&lt;div style=&quot;font-size: 1px&quot;&gt;&lt;p style=&quot;text-align:center;margin-left:0;margin-right:0;margin-top:0px;margin-bottom:0px;text-indent:0;vertical-align:middle;direction:ltr;&quot;&gt;&lt;font style=&quot;font-size:11.29px;font-family:Calibri;color:#ffffff;direction:ltr;letter-spacing:0px;line-height:120%;opacity:1&quot;&gt;Effort Estimation by PM&lt;br/&gt;&lt;/font&gt;&lt;/p&gt;&lt;/div&gt;" tags="Flowchart" id="9h3zB8wG0xILL8Boa0-e-5">
          <mxCell style="verticalAlign=middle;align=center;overflow=width;vsdxID=4;fillColor=#5b9bd5;gradientColor=none;shape=stencil(UzV2Ls5ILEhVNTIoLinKz04tz0wpyVA1dlE1MsrMy0gtyiwBslSNXVWNndPyi1LTi/JL81Ig/IJEkEoQKze/DGRCBUSfkYGegSVIl5FBJUTE0MAAzHeDKM/JzENSbm6pZ2lIvHKYJEyxKUlG41GM6Ww8iol3A8HQADIQIZmWmZMDiQhkefSQBwpBYs3YFQA=);strokeColor=#ffffff;spacingTop=-1;spacingBottom=-1;spacingLeft=-1;spacingRight=-1;points=[[0,0.5,0],[1,0.5,0],[0.5,1,0],[0.5,0,0]];labelBackgroundColor=none;rounded=0;html=1;whiteSpace=wrap;" vertex="1" parent="1">
            <mxGeometry x="544" y="244" width="119" height="60" as="geometry" />
          </mxCell>
        </UserObject>
        <UserObject label="&lt;div style=&quot;font-size: 1px&quot;&gt;&lt;p style=&quot;text-align:center;margin-left:0;margin-right:0;margin-top:0px;margin-bottom:0px;text-indent:0;vertical-align:middle;direction:ltr;&quot;&gt;&lt;font style=&quot;font-size:11.29px;font-family:Calibri;color:#ffffff;direction:ltr;letter-spacing:0px;line-height:120%;opacity:1&quot;&gt;Client Manager Approval&lt;br/&gt;&lt;/font&gt;&lt;/p&gt;&lt;/div&gt;" tags="Flowchart" id="9h3zB8wG0xILL8Boa0-e-6">
          <mxCell style="verticalAlign=middle;align=center;overflow=width;vsdxID=5;fillColor=#a5a5a5;gradientColor=none;shape=stencil(nZJJDsMgDEVP4z2xN9mn6T0ihRSrFCJCp9sHZHVComqz+8bPNt8A1C1mmDWgWmLwR33lMRqgHSCyMzpwTAqoB+omH/Qh+LMbJZ6HTGZ18pfc4SZ1KlegukvUKIn3glp2b+gjuQn+gm4Ei/FJvDxObK2s6JmvLaDBP0xh/aqfXdv2964FW3dVOEqifOV0JD+E+hU=);strokeColor=#ffffff;spacingTop=-1;spacingBottom=-1;spacingLeft=-1;spacingRight=-1;points=[[0,0.5,0],[1,0.5,0],[0.5,1,0],[0.5,0,0]];labelBackgroundColor=none;rounded=0;html=1;whiteSpace=wrap;" vertex="1" parent="1">
            <mxGeometry x="712" y="244" width="100" height="60" as="geometry" />
          </mxCell>
        </UserObject>
        <UserObject label="" tags="Flowchart" id="9h3zB8wG0xILL8Boa0-e-7">
          <mxCell style="vsdxID=6;fillColor=#73ae42;gradientColor=none;shape=stencil(UzV2Ls5ILEhVNTIoLinKz04tz0wpyVA1dlE1MsrMy0gtyiwBslSNXVWNndPyi1LTi/JL81Ig/IJEkEoQKze/DGRCBUSfAUiHkUElhGcK4bpBVOZk5iGpNEVVikeloQHZpsK0YlWLz1QgA+HFtMycHEgIIcujBwlQCBKcxq4A);strokeColor=#ffffff;spacingTop=-1;spacingBottom=-1;spacingLeft=-1;spacingRight=-1;points=[[0,0.5,0],[1,0.5,0],[0.5,0,0],[0.5,1,0]];labelBackgroundColor=none;rounded=0;html=1;whiteSpace=wrap;" vertex="1" parent="1">
            <mxGeometry x="400" y="244" width="119" height="60" as="geometry" />
          </mxCell>
        </UserObject>
        <mxCell id="9h3zB8wG0xILL8Boa0-e-8" value="&lt;div style=&quot;font-size: 1px&quot;&gt;&lt;p style=&quot;text-align:center;margin-left:0;margin-right:0;margin-top:0px;margin-bottom:0px;text-indent:0;vertical-align:middle;direction:ltr;&quot;&gt;&lt;font style=&quot;font-size:11.29px;font-family:Calibri;color:#ffffff;direction:ltr;letter-spacing:0px;line-height:120%;opacity:1&quot;&gt;is within AMS &lt;br/&gt;&lt;/font&gt;&lt;/p&gt;&lt;p style=&quot;text-align:center;margin-left:0;margin-right:0;margin-top:0px;margin-bottom:0px;text-indent:0;vertical-align:middle;direction:ltr;&quot;&gt;&lt;font style=&quot;font-size:11.29px;font-family:Calibri;color:#ffffff;direction:ltr;letter-spacing:0px;line-height:120%;opacity:1&quot;&gt;time limit?&lt;br/&gt;&lt;/font&gt;&lt;/p&gt;&lt;/div&gt;" style="text;vsdxID=6;fillColor=none;gradientColor=none;strokeColor=none;spacingTop=-1;spacingBottom=-1;spacingLeft=-1;spacingRight=-1;points=[[0,0.5,0],[1,0.5,0],[0.5,0,0],[0.5,1,0]];labelBackgroundColor=none;rounded=0;html=1;whiteSpace=wrap;verticalAlign=middle;align=center;overflow=width;;html=1;" vertex="1" parent="9h3zB8wG0xILL8Boa0-e-7">
          <mxGeometry x="9.95" y="7.5" width="99.54" height="45" as="geometry" />
        </mxCell>
        <UserObject label="&lt;div style=&quot;font-size: 1px&quot;&gt;&lt;p style=&quot;text-align:center;margin-left:0;margin-right:0;margin-top:0px;margin-bottom:0px;text-indent:0;vertical-align:middle;direction:ltr;&quot;&gt;&lt;font style=&quot;font-size:11.29px;font-family:Calibri;color:#ffffff;direction:ltr;letter-spacing:0px;line-height:120%;opacity:1&quot;&gt;Prepare BR and FD&lt;br/&gt;&lt;/font&gt;&lt;/p&gt;&lt;/div&gt;" tags="Flowchart" id="9h3zB8wG0xILL8Boa0-e-9">
          <mxCell style="verticalAlign=middle;align=center;overflow=width;vsdxID=27;fillColor=#a5a5a5;gradientColor=none;shape=stencil(tZLBDoMgDIafhiMGQeLuzr0HmahkDExh0739YJhMXbyY7Nb+/dr+hCJWuV4MElHiPNibHFXje8TOiFJlegnKhwixGrGqtSA7sA/TpHwQkYzR3T7jhCn1kdhByStlpzLjH+GSWK3MLkv2wZwcRrcOBFxDEWa64FlBEw9zQ8mzMk/SDPGdiWTCYlIOg/XCK2tWj9ICOonDNtxq0a1KbpRy+JGP+/uzvXxpLwTfn2+V1ulwlvXtpQQpXRmr3w==);strokeColor=#ffffff;spacingTop=-1;spacingBottom=-1;spacingLeft=-1;spacingRight=-1;points=[[0.66,0,0]];labelBackgroundColor=none;rounded=0;html=1;whiteSpace=wrap;" vertex="1" parent="1">
            <mxGeometry x="410" y="480" width="100" height="60" as="geometry" />
          </mxCell>
        </UserObject>
        <UserObject label="&lt;div style=&quot;font-size: 1px&quot;&gt;&lt;p style=&quot;text-align:center;margin-left:0;margin-right:0;margin-top:0px;margin-bottom:0px;text-indent:0;vertical-align:middle;direction:ltr;&quot;&gt;&lt;font style=&quot;font-size:11.29px;font-family:Calibri;color:#ffffff;direction:ltr;letter-spacing:0px;line-height:120%;opacity:1&quot;&gt;Move to CR&lt;br/&gt;&lt;/font&gt;&lt;/p&gt;&lt;/div&gt;" tags="Flowchart" id="9h3zB8wG0xILL8Boa0-e-10">
          <mxCell style="verticalAlign=middle;align=center;overflow=width;vsdxID=8;fillColor=#5b9bd5;gradientColor=none;shape=stencil(nZBLDoAgDERP0z3SIyjew0SURgSD+Lu9kMZoXLhwN9O+tukAlrNpJg1SzDH4QW/URgNYgZTkjA4UkwJUgGXng+6DX1zLfmoymdXo17xh5zmRJ6Q42BWCfc2oJfdAr+Yv+AP9Cb7OJ3H/2JG1HNGz/84klThPVCc=);strokeColor=#ffffff;spacingTop=-1;spacingBottom=-1;spacingLeft=-1;spacingRight=-1;points=[[0,0.5,0],[1,0.5,0],[0.5,1,0],[0.5,0,0]];labelBackgroundColor=none;rounded=0;html=1;whiteSpace=wrap;" vertex="1" parent="1">
            <mxGeometry x="251" y="244" width="100" height="60" as="geometry" />
          </mxCell>
        </UserObject>
        <UserObject label="&lt;div style=&quot;font-size: 1px&quot;&gt;&lt;p style=&quot;text-align:center;margin-left:0;margin-right:0;margin-top:0px;margin-bottom:0px;text-indent:0;vertical-align:middle;direction:ltr;&quot;&gt;&lt;font style=&quot;font-size:11.29px;font-family:Calibri;color:#ffffff;direction:ltr;letter-spacing:0px;line-height:120%;opacity:1&quot;&gt;Review BR and FD and approve&lt;br/&gt;&lt;/font&gt;&lt;/p&gt;&lt;/div&gt;" tags="Flowchart" id="9h3zB8wG0xILL8Boa0-e-11">
          <mxCell style="verticalAlign=middle;align=center;overflow=width;vsdxID=9;fillColor=#a5a5a5;gradientColor=none;shape=stencil(nZJJDsMgDEVP4z2xN9mn6T0ihRSrFCJCp9sHZHVComqz+8bPNt8A1C1mmDWgWmLwR33lMRqgHSCyMzpwTAqoB+omH/Qh+LMbJZ6HTGZ18pfc4SZ1KlegukvUKIn3glp2b+gjuQn+gm4Ei/FJvDxObK2s6JmvLaDBP0xh/aqfXdv2964FW3dVOEqifOV0JD+E+hU=);strokeColor=#ffffff;spacingTop=-1;spacingBottom=-1;spacingLeft=-1;spacingRight=-1;points=[[0,0.5,0],[1,0.5,0],[0.5,1,0],[0.5,0,0]];labelBackgroundColor=none;rounded=0;html=1;whiteSpace=wrap;" vertex="1" parent="1">
            <mxGeometry x="870" y="244" width="100" height="60" as="geometry" />
          </mxCell>
        </UserObject>
        <UserObject label="" tags="Flowchart" id="9h3zB8wG0xILL8Boa0-e-12">
          <mxCell style="vsdxID=10;fillColor=#73ae42;gradientColor=none;shape=stencil(UzV2Ls5ILEhVNTIoLinKz04tz0wpyVA1dlE1MsrMy0gtyiwBslSNXVWNndPyi1LTi/JL81Ig/IJEkEoQKze/DGRCBUSfAUiHkUElhGcK4bpBVOZk5iGpNEVVikeloQHZpsK0YlWLz1QgA+HFtMycHEgIIcujBwlQCBKcxq4A);strokeColor=#ffffff;spacingTop=-1;spacingBottom=-1;spacingLeft=-1;spacingRight=-1;points=[[0,0.5,0],[1,0.5,0],[0.5,0,0],[0.5,1,0]];labelBackgroundColor=none;rounded=0;html=1;whiteSpace=wrap;" vertex="1" parent="1">
            <mxGeometry x="1102" y="244" width="100" height="60" as="geometry" />
          </mxCell>
        </UserObject>
        <mxCell id="9h3zB8wG0xILL8Boa0-e-13" value="&lt;div style=&quot;font-size: 1px&quot;&gt;&lt;p style=&quot;text-align:center;margin-left:0;margin-right:0;margin-top:0px;margin-bottom:0px;text-indent:0;vertical-align:middle;direction:ltr;&quot;&gt;&lt;font style=&quot;font-size:11.29px;font-family:Calibri;color:#ffffff;direction:ltr;letter-spacing:0px;line-height:120%;opacity:1&quot;&gt;Approved?&lt;br/&gt;&lt;/font&gt;&lt;/p&gt;&lt;/div&gt;" style="text;vsdxID=10;fillColor=none;gradientColor=none;strokeColor=none;spacingTop=-1;spacingBottom=-1;spacingLeft=-1;spacingRight=-1;points=[[0,0.5,0],[1,0.5,0],[0.5,0,0],[0.5,1,0]];labelBackgroundColor=none;rounded=0;html=1;whiteSpace=wrap;verticalAlign=middle;align=center;overflow=width;;html=1;" vertex="1" parent="9h3zB8wG0xILL8Boa0-e-12">
          <mxGeometry x="8.33" y="7.5" width="83.33" height="45" as="geometry" />
        </mxCell>
        <UserObject label="&lt;div style=&quot;font-size: 1px&quot;&gt;&lt;p style=&quot;text-align:center;margin-left:0;margin-right:0;margin-top:0px;margin-bottom:0px;text-indent:0;vertical-align:middle;direction:ltr;&quot;&gt;&lt;font style=&quot;font-size:11.29px;font-family:Calibri;color:#ffffff;direction:ltr;letter-spacing:0px;line-height:120%;opacity:1&quot;&gt;Develop changes / Fix issues in DEV&lt;br/&gt;&lt;/font&gt;&lt;/p&gt;&lt;/div&gt;" tags="Flowchart" id="9h3zB8wG0xILL8Boa0-e-14">
          <mxCell style="verticalAlign=middle;align=center;overflow=width;vsdxID=11;fillColor=#a5a5a5;gradientColor=none;shape=stencil(nZLdDoMgDIWfprem0mSJ1869h4k4yBgYZH9vP0ij2zAum3fn0K8lpwBUj6odJAgcg3cnedNdUEB7EEJbJb0OUQE1QHXvvDx6d7Ed+6FNZFJnd00T7tyHqUPgg12J7A+MGm3f0Km4Cf6CbgSz66N4Zey1Mbyiub62gKqg8vdYC/qDzSZjsav+GL3A1/Nl2aLI3zse8V+h5gk=);strokeColor=#ffffff;spacingTop=-1;spacingBottom=-1;spacingLeft=-1;spacingRight=-1;points=[[0,0.5,0],[1,0.5,0],[0.5,1,0],[0.5,0,0]];labelBackgroundColor=none;rounded=0;html=1;whiteSpace=wrap;" vertex="1" parent="1">
            <mxGeometry x="1087" y="461" width="128" height="60" as="geometry" />
          </mxCell>
        </UserObject>
        <UserObject label="&lt;div style=&quot;font-size: 1px&quot;&gt;&lt;p style=&quot;text-align:center;margin-left:0;margin-right:0;margin-top:0px;margin-bottom:0px;text-indent:0;vertical-align:middle;direction:ltr;&quot;&gt;&lt;font style=&quot;font-size:11.29px;font-family:Calibri;color:#ffffff;direction:ltr;letter-spacing:0px;line-height:120%;opacity:1&quot;&gt;Prepare/update TDD&lt;br/&gt;&lt;/font&gt;&lt;/p&gt;&lt;/div&gt;" tags="Flowchart" id="9h3zB8wG0xILL8Boa0-e-15">
          <mxCell style="verticalAlign=middle;align=center;overflow=width;vsdxID=24;fillColor=#a5a5a5;gradientColor=none;shape=stencil(tZLBDoMgDIafhiMGQed2du49yEQlY2AKm+7tB8Nk6uLFZLf279f2JxSx0na8F4gS68DcxCBr1yF2RpRK3QmQzkeIVYiVjQHRgnnoOuY9D2SI7uYZJoyxj4QOSl4xOxZJ/hEukVVSb7JkG0zJbnTtgMPVF2GiszzJaORhaijy5HCK0gTlGxPJiPkoLQbjuJNGLx6lOLQC+224UbxdlOwgRP8j7/f3Z3vp3J4Pvj/fSKXi4czr60vxUrwyVr0B);strokeColor=#ffffff;spacingTop=-1;spacingBottom=-1;spacingLeft=-1;spacingRight=-1;points=[[0,0.5,0],[1,0.5,0],[0.5,0,0],[0.5,0.88,0]];labelBackgroundColor=none;rounded=0;html=1;whiteSpace=wrap;" vertex="1" parent="1">
            <mxGeometry x="1245" y="461" width="100" height="60" as="geometry" />
          </mxCell>
        </UserObject>
        <UserObject label="&lt;div style=&quot;font-size: 1px&quot;&gt;&lt;p style=&quot;text-align:center;margin-left:0;margin-right:0;margin-top:0px;margin-bottom:0px;text-indent:0;vertical-align:middle;direction:ltr;&quot;&gt;&lt;font style=&quot;font-size:11.29px;font-family:Calibri;color:#ffffff;direction:ltr;letter-spacing:0px;line-height:120%;opacity:1&quot;&gt;Unit Testing in DEV,&lt;br/&gt;&lt;/font&gt;&lt;/p&gt;&lt;p style=&quot;text-align:center;margin-left:0;margin-right:0;margin-top:0px;margin-bottom:0px;text-indent:0;vertical-align:middle;direction:ltr;&quot;&gt;&lt;font style=&quot;font-size:11.29px;font-family:Calibri;color:#ffffff;direction:ltr;letter-spacing:0px;line-height:120%;opacity:1&quot;&gt;Migrate chagnes to TEST&lt;br/&gt;&lt;/font&gt;&lt;/p&gt;&lt;/div&gt;" tags="Flowchart" id="9h3zB8wG0xILL8Boa0-e-16">
          <mxCell style="verticalAlign=middle;align=center;overflow=width;vsdxID=13;fillColor=#5b9bd5;gradientColor=none;shape=stencil(nZBLDoAgDERP0z3SIyjew0SURgSD+Lu9kMZoXLhwN9O+tukAlrNpJg1SzDH4QW/URgNYgZTkjA4UkwJUgGXng+6DX1zLfmoymdXo17xh5zmRJ6Q42BWCfc2oJfdAr+Yv+AP9Cb7OJ3H/2JG1HNGz/84klThPVCc=);strokeColor=#ffffff;spacingTop=-1;spacingBottom=-1;spacingLeft=-1;spacingRight=-1;points=[[0,0.5,0],[1,0.5,0],[0.5,1,0],[0.5,0,0]];labelBackgroundColor=none;rounded=0;html=1;whiteSpace=wrap;" vertex="1" parent="1">
            <mxGeometry x="1369" y="461" width="100" height="60" as="geometry" />
          </mxCell>
        </UserObject>
        <UserObject label="&lt;div style=&quot;font-size: 1px&quot;&gt;&lt;p style=&quot;text-align:center;margin-left:0;margin-right:0;margin-top:0px;margin-bottom:0px;text-indent:0;vertical-align:middle;direction:ltr;&quot;&gt;&lt;font style=&quot;font-size:11.29px;font-family:Calibri;color:#ffffff;direction:ltr;letter-spacing:0px;line-height:120%;opacity:1&quot;&gt;Prepare Test Scripts, SIT Evidences&lt;br/&gt;&lt;/font&gt;&lt;/p&gt;&lt;/div&gt;" tags="Flowchart" id="9h3zB8wG0xILL8Boa0-e-17">
          <mxCell style="verticalAlign=middle;align=center;overflow=width;vsdxID=25;fillColor=#a5a5a5;gradientColor=none;shape=stencil(tZLBDoMgDIafhiMGQed2du49yEQlY2AKm+7tB8Nk6uLFZLf279f2JxSx0na8F4gS68DcxCBr1yF2RpRK3QmQzkeIVYiVjQHRgnnoOuY9D2SI7uYZJoyxj4QOSl4xOxZJ/hEukVVSb7JkG0zJbnTtgMPVF2GiszzJaORhaijy5HCK0gTlGxPJiPkoLQbjuJNGLx6lOLQC+224UbxdlOwgRP8j7/f3Z3vp3J4Pvj/fSKXi4czr60vxUrwyVr0B);strokeColor=#ffffff;spacingTop=-1;spacingBottom=-1;spacingLeft=-1;spacingRight=-1;points=[[0,0.5,0],[1,0.5,0],[0.5,0,0],[0.5,0.88,0]];labelBackgroundColor=none;rounded=0;html=1;whiteSpace=wrap;" vertex="1" parent="1">
            <mxGeometry x="1369" y="562" width="100" height="60" as="geometry" />
          </mxCell>
        </UserObject>
        <UserObject label="" tags="Flowchart" id="9h3zB8wG0xILL8Boa0-e-18">
          <mxCell style="vsdxID=15;fillColor=#73ae42;gradientColor=none;shape=stencil(UzV2Ls5ILEhVNTIoLinKz04tz0wpyVA1dlE1MsrMy0gtyiwBslSNXVWNndPyi1LTi/JL81Ig/IJEkEoQKze/DGRCBUSfAUiHkUElhGcK4bpBVOZk5iGpNEVVikeloQHZpsK0YlWLz1QgA+HFtMycHEgIIcujBwlQCBKcxq4A);strokeColor=#ffffff;spacingTop=-1;spacingBottom=-1;spacingLeft=-1;spacingRight=-1;points=[[0,0.5,0],[1,0.5,0],[0.5,0,0],[0.5,1,0]];labelBackgroundColor=none;rounded=0;html=1;whiteSpace=wrap;" vertex="1" parent="1">
            <mxGeometry x="1102" y="562" width="100" height="60" as="geometry" />
          </mxCell>
        </UserObject>
        <mxCell id="9h3zB8wG0xILL8Boa0-e-19" value="&lt;div style=&quot;font-size: 1px&quot;&gt;&lt;p style=&quot;text-align:center;margin-left:0;margin-right:0;margin-top:0px;margin-bottom:0px;text-indent:0;vertical-align:middle;direction:ltr;&quot;&gt;&lt;font style=&quot;font-size:11.29px;font-family:Calibri;color:#ffffff;direction:ltr;letter-spacing:0px;line-height:120%;opacity:1&quot;&gt;Issue found?&lt;br/&gt;&lt;/font&gt;&lt;/p&gt;&lt;/div&gt;" style="text;vsdxID=15;fillColor=none;gradientColor=none;strokeColor=none;spacingTop=-1;spacingBottom=-1;spacingLeft=-1;spacingRight=-1;points=[[0,0.5,0],[1,0.5,0],[0.5,0,0],[0.5,1,0]];labelBackgroundColor=none;rounded=0;html=1;whiteSpace=wrap;verticalAlign=middle;align=center;overflow=width;;html=1;" vertex="1" parent="9h3zB8wG0xILL8Boa0-e-18">
          <mxGeometry x="8.33" y="7.5" width="83.33" height="45" as="geometry" />
        </mxCell>
        <UserObject label="&lt;div style=&quot;font-size: 1px&quot;&gt;&lt;p style=&quot;text-align:center;margin-left:0;margin-right:0;margin-top:0px;margin-bottom:0px;text-indent:0;vertical-align:middle;direction:ltr;&quot;&gt;&lt;font style=&quot;font-size:11.29px;font-family:Calibri;color:#ffffff;direction:ltr;letter-spacing:0px;line-height:120%;opacity:1&quot;&gt;Prepare/Update Migration Document&lt;br/&gt;&lt;/font&gt;&lt;/p&gt;&lt;/div&gt;" tags="Flowchart" id="9h3zB8wG0xILL8Boa0-e-20">
          <mxCell style="verticalAlign=middle;align=center;overflow=width;vsdxID=26;fillColor=#a5a5a5;gradientColor=none;shape=stencil(tZLBDoMgDIafhiMGQed2du49yEQlY2AKm+7tB8Nk6uLFZLf279f2JxSx0na8F4gS68DcxCBr1yF2RpRK3QmQzkeIVYiVjQHRgnnoOuY9D2SI7uYZJoyxj4QOSl4xOxZJ/hEukVVSb7JkG0zJbnTtgMPVF2GiszzJaORhaijy5HCK0gTlGxPJiPkoLQbjuJNGLx6lOLQC+224UbxdlOwgRP8j7/f3Z3vp3J4Pvj/fSKXi4czr60vxUrwyVr0B);strokeColor=#ffffff;spacingTop=-1;spacingBottom=-1;spacingLeft=-1;spacingRight=-1;points=[[0,0.5,0],[1,0.5,0],[0.5,0,0],[0.5,0.88,0]];labelBackgroundColor=none;rounded=0;html=1;whiteSpace=wrap;" vertex="1" parent="1">
            <mxGeometry x="870" y="562" width="100" height="60" as="geometry" />
          </mxCell>
        </UserObject>
        <UserObject label="&lt;div style=&quot;font-size: 1px&quot;&gt;&lt;p style=&quot;text-align:center;margin-left:0;margin-right:0;margin-top:0px;margin-bottom:0px;text-indent:0;vertical-align:middle;direction:ltr;&quot;&gt;&lt;font style=&quot;font-size:11.29px;font-family:Calibri;color:#ffffff;direction:ltr;letter-spacing:0px;line-height:120%;opacity:1&quot;&gt;All documents review&lt;br/&gt;&lt;/font&gt;&lt;/p&gt;&lt;/div&gt;" tags="Flowchart" id="9h3zB8wG0xILL8Boa0-e-21">
          <mxCell style="verticalAlign=middle;align=center;overflow=width;vsdxID=23;fillColor=#a5a5a5;gradientColor=none;shape=stencil(tZLBDoMgDIafhiMGQed2du49yEQlY2AKm+7tB8Nk6uLFZLf279f2JxSx0na8F4gS68DcxCBr1yF2RpRK3QmQzkeIVYiVjQHRgnnoOuY9D2SI7uYZJoyxj4QOSl4xOxZJ/hEukVVSb7JkG0zJbnTtgMPVF2GiszzJaORhaijy5HCK0gTlGxPJiPkoLQbjuJNGLx6lOLQC+224UbxdlOwgRP8j7/f3Z3vp3J4Pvj/fSKXi4czr60vxUrwyVr0B);strokeColor=#ffffff;spacingTop=-1;spacingBottom=-1;spacingLeft=-1;spacingRight=-1;points=[[0,0.5,0],[1,0.5,0],[0.5,0,0],[0.5,0.88,0]];labelBackgroundColor=none;rounded=0;html=1;whiteSpace=wrap;" vertex="1" parent="1">
            <mxGeometry x="870" y="344" width="100" height="60" as="geometry" />
          </mxCell>
        </UserObject>
        <UserObject label="" tags="Flowchart" id="9h3zB8wG0xILL8Boa0-e-22">
          <mxCell style="vsdxID=19;fillColor=#73ae42;gradientColor=none;shape=stencil(UzV2Ls5ILEhVNTIoLinKz04tz0wpyVA1dlE1MsrMy0gtyiwBslSNXVWNndPyi1LTi/JL81Ig/IJEkEoQKze/DGRCBUSfAUiHkUElhGcK4bpBVOZk5iGpNEVVikeloQHZpsK0YlWLz1QgA+HFtMycHEgIIcujBwlQCBKcxq4A);strokeColor=#ffffff;spacingTop=-1;spacingBottom=-1;spacingLeft=-1;spacingRight=-1;points=[[1,0.5,0],[0.5,0,0],[0.5,0,0]];labelBackgroundColor=none;rounded=0;html=1;whiteSpace=wrap;" vertex="1" parent="1">
            <mxGeometry x="591" y="336" width="119" height="76" as="geometry" />
          </mxCell>
        </UserObject>
        <mxCell id="9h3zB8wG0xILL8Boa0-e-23" value="&lt;div style=&quot;font-size: 1px&quot;&gt;&lt;p style=&quot;text-align:center;margin-left:0;margin-right:0;margin-top:0px;margin-bottom:0px;text-indent:0;vertical-align:middle;direction:ltr;&quot;&gt;&lt;font style=&quot;font-size:11.29px;font-family:Calibri;color:#ffffff;direction:ltr;letter-spacing:0px;line-height:120%;opacity:1&quot;&gt;documents reviewed? and approved?&lt;br/&gt;&lt;/font&gt;&lt;/p&gt;&lt;/div&gt;" style="text;vsdxID=19;fillColor=none;gradientColor=none;strokeColor=none;spacingTop=-1;spacingBottom=-1;spacingLeft=-1;spacingRight=-1;points=[[1,0.5,0],[0.5,0,0],[0.5,0,0]];labelBackgroundColor=none;rounded=0;html=1;whiteSpace=wrap;verticalAlign=middle;align=center;overflow=width;;html=1;" vertex="1" parent="9h3zB8wG0xILL8Boa0-e-22">
          <mxGeometry x="9.95" y="9.5" width="99.54" height="57" as="geometry" />
        </mxCell>
        <UserObject label="&lt;div style=&quot;font-size: 1px&quot;&gt;&lt;p style=&quot;text-align:center;margin-left:0;margin-right:0;margin-top:0px;margin-bottom:0px;text-indent:0;vertical-align:middle;direction:ltr;&quot;&gt;&lt;font style=&quot;font-size:11.29px;font-family:Calibri;color:#ffffff;direction:ltr;letter-spacing:0px;line-height:120%;opacity:1&quot;&gt;Request for UAT movement&lt;br/&gt;&lt;/font&gt;&lt;/p&gt;&lt;p style=&quot;text-align:center;margin-left:0;margin-right:0;margin-top:0px;margin-bottom:0px;text-indent:0;vertical-align:middle;direction:ltr;&quot;&gt;&lt;font style=&quot;font-size:11.29px;font-family:Calibri;color:#ffffff;direction:ltr;letter-spacing:0px;line-height:120%;opacity:1&quot;&gt;with Migration Document&lt;br/&gt;&lt;/font&gt;&lt;/p&gt;&lt;/div&gt;" tags="Flowchart" id="9h3zB8wG0xILL8Boa0-e-24">
          <mxCell style="verticalAlign=middle;align=center;overflow=width;vsdxID=20;fillColor=#a5a5a5;gradientColor=none;shape=stencil(nZJJDsMgDEVP4z2xN9mn6T0ihRSrFCJCp9sHZHVComqz+8bPNt8A1C1mmDWgWmLwR33lMRqgHSCyMzpwTAqoB+omH/Qh+LMbJZ6HTGZ18pfc4SZ1KlegukvUKIn3glp2b+gjuQn+gm4Ei/FJvDxObK2s6JmvLaDBP0xh/aqfXdv2964FW3dVOEqifOV0JD+E+hU=);strokeColor=#ffffff;spacingTop=-1;spacingBottom=-1;spacingLeft=-1;spacingRight=-1;points=[[0,0.5,0],[1,0.5,0],[0.5,1,0],[0.5,0,0]];labelBackgroundColor=none;rounded=0;html=1;whiteSpace=wrap;" vertex="1" parent="1">
            <mxGeometry x="600" y="472" width="100" height="76" as="geometry" />
          </mxCell>
        </UserObject>
        <UserObject label="&lt;div style=&quot;font-size: 1px&quot;&gt;&lt;p style=&quot;text-align:center;margin-left:0;margin-right:0;margin-top:0px;margin-bottom:0px;text-indent:0;vertical-align:middle;direction:ltr;&quot;&gt;&lt;font style=&quot;font-size:11.29px;font-family:Calibri;color:#ffffff;direction:ltr;letter-spacing:0px;line-height:120%;opacity:1&quot;&gt;UAT Migration&lt;br/&gt;&lt;/font&gt;&lt;/p&gt;&lt;/div&gt;" tags="Flowchart" id="9h3zB8wG0xILL8Boa0-e-25">
          <mxCell style="verticalAlign=middle;align=center;overflow=width;vsdxID=21;fillColor=#a5a5a5;gradientColor=none;shape=stencil(nZJJDsMgDEVP4z2xN9mn6T0ihRSrFCJCp9sHZHVComqz+8bPNt8A1C1mmDWgWmLwR33lMRqgHSCyMzpwTAqoB+omH/Qh+LMbJZ6HTGZ18pfc4SZ1KlegukvUKIn3glp2b+gjuQn+gm4Ei/FJvDxObK2s6JmvLaDBP0xh/aqfXdv2964FW3dVOEqifOV0JD+E+hU=);strokeColor=#ffffff;spacingTop=-1;spacingBottom=-1;spacingLeft=-1;spacingRight=-1;points=[[0,0.5,0],[1,0.5,0],[0.5,1,0],[0.5,0,0]];labelBackgroundColor=none;rounded=0;html=1;whiteSpace=wrap;" vertex="1" parent="1">
            <mxGeometry x="600" y="705" width="100" height="60" as="geometry" />
          </mxCell>
        </UserObject>
        <UserObject label="" tags="Flowchart" id="9h3zB8wG0xILL8Boa0-e-26">
          <mxCell style="vsdxID=22;fillColor=#73ae42;gradientColor=none;shape=stencil(UzV2Ls5ILEhVNTIoLinKz04tz0wpyVA1dlE1MsrMy0gtyiwBslSNXVWNndPyi1LTi/JL81Ig/IJEkEoQKze/DGRCBUSfAUiHkUElhGcK4bpBVOZk5iGpNEVVikeloQHZpsK0YlWLz1QgA+HFtMycHEgIIcujBwlQCBKcxq4A);strokeColor=#ffffff;spacingTop=-1;spacingBottom=-1;spacingLeft=-1;spacingRight=-1;points=[[0,0.5,0],[1,0.5,0],[0.5,0,0],[0.5,1,0]];labelBackgroundColor=none;rounded=0;html=1;whiteSpace=wrap;" vertex="1" parent="1">
            <mxGeometry x="870" y="705" width="100" height="60" as="geometry" />
          </mxCell>
        </UserObject>
        <mxCell id="9h3zB8wG0xILL8Boa0-e-27" value="&lt;div style=&quot;font-size: 1px&quot;&gt;&lt;p style=&quot;text-align:center;margin-left:0;margin-right:0;margin-top:0px;margin-bottom:0px;text-indent:0;vertical-align:middle;direction:ltr;&quot;&gt;&lt;font style=&quot;font-size:11.29px;font-family:Calibri;color:#ffffff;direction:ltr;letter-spacing:0px;line-height:120%;opacity:1&quot;&gt;Having Issues?&lt;br/&gt;&lt;/font&gt;&lt;/p&gt;&lt;/div&gt;" style="text;vsdxID=22;fillColor=none;gradientColor=none;strokeColor=none;spacingTop=-1;spacingBottom=-1;spacingLeft=-1;spacingRight=-1;points=[[0,0.5,0],[1,0.5,0],[0.5,0,0],[0.5,1,0]];labelBackgroundColor=none;rounded=0;html=1;whiteSpace=wrap;verticalAlign=middle;align=center;overflow=width;;html=1;" vertex="1" parent="9h3zB8wG0xILL8Boa0-e-26">
          <mxGeometry x="8.33" y="7.5" width="83.33" height="45" as="geometry" />
        </mxCell>
        <UserObject label="&lt;div style=&quot;font-size: 1px&quot;&gt;&lt;p style=&quot;text-align:center;margin-left:0;margin-right:0;margin-top:0px;margin-bottom:0px;text-indent:0;vertical-align:middle;direction:ltr;&quot;&gt;&lt;font style=&quot;font-size:11.29px;font-family:Calibri;color:#ffffff;direction:ltr;letter-spacing:0px;line-height:120%;opacity:1&quot;&gt;User Acceptance Testign in UAT&lt;br/&gt;&lt;/font&gt;&lt;/p&gt;&lt;/div&gt;" tags="Flowchart" id="9h3zB8wG0xILL8Boa0-e-28">
          <mxCell style="verticalAlign=middle;align=center;overflow=width;vsdxID=28;fillColor=#5b9bd5;gradientColor=none;shape=stencil(nZBLDoAgDERP0z3SIyjew0SURgSD+Lu9kMZoXLhwN9O+tukAlrNpJg1SzDH4QW/URgNYgZTkjA4UkwJUgGXng+6DX1zLfmoymdXo17xh5zmRJ6Q42BWCfc2oJfdAr+Yv+AP9Cb7OJ3H/2JG1HNGz/84klThPVCc=);strokeColor=#ffffff;spacingTop=-1;spacingBottom=-1;spacingLeft=-1;spacingRight=-1;points=[[0,0.5,0],[1,0.5,0],[0.5,1,0],[0.5,0,0]];labelBackgroundColor=none;rounded=0;html=1;whiteSpace=wrap;" vertex="1" parent="1">
            <mxGeometry x="974" y="128" width="100" height="60" as="geometry" />
          </mxCell>
        </UserObject>
        <UserObject label="&lt;div style=&quot;font-size: 1px&quot;&gt;&lt;p style=&quot;text-align:center;margin-left:0;margin-right:0;margin-top:0px;margin-bottom:0px;text-indent:0;vertical-align:middle;direction:ltr;&quot;&gt;&lt;font style=&quot;font-size:11.29px;font-family:Calibri;color:#ffffff;direction:ltr;letter-spacing:0px;line-height:120%;opacity:1&quot;&gt;UAT SignOff&lt;br/&gt;&lt;/font&gt;&lt;/p&gt;&lt;/div&gt;" tags="Flowchart" id="9h3zB8wG0xILL8Boa0-e-29">
          <mxCell style="verticalAlign=middle;align=center;overflow=width;vsdxID=29;fillColor=#a5a5a5;gradientColor=none;shape=stencil(tZLBDoMgDIafhiMGQed2du49yEQlY2AKm+7tB8Nk6uLFZLf279f2JxSx0na8F4gS68DcxCBr1yF2RpRK3QmQzkeIVYiVjQHRgnnoOuY9D2SI7uYZJoyxj4QOSl4xOxZJ/hEukVVSb7JkG0zJbnTtgMPVF2GiszzJaORhaijy5HCK0gTlGxPJiPkoLQbjuJNGLx6lOLQC+224UbxdlOwgRP8j7/f3Z3vp3J4Pvj/fSKXi4czr60vxUrwyVr0B);strokeColor=#ffffff;spacingTop=-1;spacingBottom=-1;spacingLeft=-1;spacingRight=-1;points=[[0,0.5,0],[1,0.5,0],[0.5,0,0],[0.5,0.88,0]];labelBackgroundColor=none;rounded=0;html=1;whiteSpace=wrap;" vertex="1" parent="1">
            <mxGeometry x="1310" y="128" width="100" height="60" as="geometry" />
          </mxCell>
        </UserObject>
        <UserObject label="&lt;div style=&quot;font-size: 1px&quot;&gt;&lt;p style=&quot;text-align:center;margin-left:0;margin-right:0;margin-top:0px;margin-bottom:0px;text-indent:0;vertical-align:middle;direction:ltr;&quot;&gt;&lt;font style=&quot;font-size:11.29px;font-family:Calibri;color:#ffffff;direction:ltr;letter-spacing:0px;line-height:120%;opacity:1&quot;&gt;Request for Production Migration&lt;br/&gt;&lt;/font&gt;&lt;/p&gt;&lt;/div&gt;" tags="Flowchart" id="9h3zB8wG0xILL8Boa0-e-30">
          <mxCell style="verticalAlign=middle;align=center;overflow=width;vsdxID=30;fillColor=#5b9bd5;gradientColor=none;shape=stencil(nZBLDoAgDERP0z3SIyjew0SURgSD+Lu9kMZoXLhwN9O+tukAlrNpJg1SzDH4QW/URgNYgZTkjA4UkwJUgGXng+6DX1zLfmoymdXo17xh5zmRJ6Q42BWCfc2oJfdAr+Yv+AP9Cb7OJ3H/2JG1HNGz/84klThPVCc=);strokeColor=#ffffff;spacingTop=-1;spacingBottom=-1;spacingLeft=-1;spacingRight=-1;points=[[0,0.5,0],[1,0.5,0],[0.5,1,0],[0.5,0,0]];labelBackgroundColor=none;rounded=0;html=1;whiteSpace=wrap;" vertex="1" parent="1">
            <mxGeometry x="1534" y="521" width="100" height="60" as="geometry" />
          </mxCell>
        </UserObject>
        <UserObject label="&lt;div style=&quot;font-size: 1px&quot;&gt;&lt;p style=&quot;text-align:center;margin-left:0;margin-right:0;margin-top:0px;margin-bottom:0px;text-indent:0;vertical-align:middle;direction:ltr;&quot;&gt;&lt;font style=&quot;font-size:11.29px;font-family:Calibri;color:#ffffff;direction:ltr;letter-spacing:0px;line-height:120%;opacity:1&quot;&gt;Migration to Production&lt;br/&gt;&lt;/font&gt;&lt;/p&gt;&lt;/div&gt;" tags="Flowchart" id="9h3zB8wG0xILL8Boa0-e-31">
          <mxCell style="verticalAlign=middle;align=center;overflow=width;vsdxID=31;fillColor=#5b9bd5;gradientColor=none;shape=stencil(nZBLDoAgDERP0z3SIyjew0SURgSD+Lu9kMZoXLhwN9O+tukAlrNpJg1SzDH4QW/URgNYgZTkjA4UkwJUgGXng+6DX1zLfmoymdXo17xh5zmRJ6Q42BWCfc2oJfdAr+Yv+AP9Cb7OJ3H/2JG1HNGz/84klThPVCc=);strokeColor=#ffffff;spacingTop=-1;spacingBottom=-1;spacingLeft=-1;spacingRight=-1;points=[[0,0.5,0],[1,0.5,0],[0.5,1,0],[0.5,0,0]];labelBackgroundColor=none;rounded=0;html=1;whiteSpace=wrap;" vertex="1" parent="1">
            <mxGeometry x="1534" y="705" width="100" height="60" as="geometry" />
          </mxCell>
        </UserObject>
        <UserObject label="&lt;div style=&quot;font-size: 1px&quot;&gt;&lt;p style=&quot;text-align:center;margin-left:0;margin-right:0;margin-top:0px;margin-bottom:0px;text-indent:0;vertical-align:middle;direction:ltr;&quot;&gt;&lt;font style=&quot;font-size:11.29px;font-family:Calibri;color:#ffffff;direction:ltr;letter-spacing:0px;line-height:120%;opacity:1&quot;&gt;Notify Tech Team&lt;br/&gt;&lt;/font&gt;&lt;/p&gt;&lt;/div&gt;" tags="Flowchart" id="9h3zB8wG0xILL8Boa0-e-32">
          <mxCell style="verticalAlign=middle;align=center;overflow=width;vsdxID=32;fillColor=#5b9bd5;gradientColor=none;shape=stencil(nZBbDoQgDEVX03+k7sDHPkxEaWTAIL52L6QxOn6Yyfzd25626QUsJt2MCqSYgneDWqkNGrAEKclq5SlEBVgBFp3zqvduti37sUlkUh+3pA0bz4k0IcXOLhPsa0YN2Rt6Nv+CX9BvMP+ZfNyP4nqyI2M4o3v/GUoscaBYHQ==);strokeColor=#ffffff;spacingTop=-1;spacingBottom=-1;spacingLeft=-1;spacingRight=-1;points=[[0,0.71,0]];labelBackgroundColor=none;rounded=0;html=1;whiteSpace=wrap;" vertex="1" parent="1">
            <mxGeometry x="1734" y="521" width="100" height="60" as="geometry" />
          </mxCell>
        </UserObject>
        <UserObject label="&lt;div style=&quot;font-size: 1px&quot;&gt;&lt;p style=&quot;text-align:center;margin-left:0;margin-right:0;margin-top:0px;margin-bottom:0px;text-indent:0;vertical-align:middle;direction:ltr;&quot;&gt;&lt;font style=&quot;font-size:11.29px;font-family:Calibri;color:#ffffff;direction:ltr;letter-spacing:0px;line-height:120%;opacity:1&quot;&gt;Notify PM/Client Manager&lt;br/&gt;&lt;/font&gt;&lt;/p&gt;&lt;/div&gt;" tags="Flowchart" id="9h3zB8wG0xILL8Boa0-e-33">
          <mxCell style="verticalAlign=middle;align=center;overflow=width;vsdxID=33;fillColor=#5b9bd5;gradientColor=none;shape=stencil(nZBbDoQgDEVX03+k7sDHPkxEaWTAIL52L6QxOn6Yyfzd25626QUsJt2MCqSYgneDWqkNGrAEKclq5SlEBVgBFp3zqvduti37sUlkUh+3pA0bz4k0IcXOLhPsa0YN2Rt6Nv+CX9BvMP+ZfNyP4nqyI2M4o3v/GUoscaBYHQ==);strokeColor=#ffffff;spacingTop=-1;spacingBottom=-1;spacingLeft=-1;spacingRight=-1;points=[[0,0.68,0]];labelBackgroundColor=none;rounded=0;html=1;whiteSpace=wrap;" vertex="1" parent="1">
            <mxGeometry x="1734" y="260" width="100" height="60" as="geometry" />
          </mxCell>
        </UserObject>
        <UserObject label="&lt;div style=&quot;font-size: 1px&quot;&gt;&lt;p style=&quot;text-align:center;margin-left:0;margin-right:0;margin-top:0px;margin-bottom:0px;text-indent:0;vertical-align:middle;direction:ltr;&quot;&gt;&lt;font style=&quot;font-size:11.29px;font-family:Calibri;color:#ffffff;direction:ltr;letter-spacing:0px;line-height:120%;opacity:1&quot;&gt;Notify Client&lt;br/&gt;&lt;/font&gt;&lt;/p&gt;&lt;/div&gt;" tags="Flowchart" id="9h3zB8wG0xILL8Boa0-e-34">
          <mxCell style="verticalAlign=middle;align=center;overflow=width;vsdxID=34;fillColor=#5b9bd5;gradientColor=none;shape=stencil(nZBbDoQgDEVX03+k7sDHPkxEaWTAIL52L6QxOn6Yyfzd25626QUsJt2MCqSYgneDWqkNGrAEKclq5SlEBVgBFp3zqvduti37sUlkUh+3pA0bz4k0IcXOLhPsa0YN2Rt6Nv+CX9BvMP+ZfNyP4nqyI2M4o3v/GUoscaBYHQ==);strokeColor=#ffffff;spacingTop=-1;spacingBottom=-1;spacingLeft=-1;spacingRight=-1;points=[[0,0.75,0]];labelBackgroundColor=none;rounded=0;html=1;whiteSpace=wrap;" vertex="1" parent="1">
            <mxGeometry x="1734" y="120" width="100" height="60" as="geometry" />
          </mxCell>
        </UserObject>
        <UserObject label="&lt;div style=&quot;font-size: 1px&quot;&gt;&lt;p style=&quot;text-align:center;margin-left:0;margin-right:0;margin-top:0px;margin-bottom:0px;text-indent:0;vertical-align:middle;direction:ltr;&quot;&gt;&lt;font style=&quot;font-size:11.29px;font-family:Calibri;color:#ffffff;direction:ltr;letter-spacing:0px;line-height:120%;opacity:1&quot;&gt;End&lt;br/&gt;&lt;/font&gt;&lt;/p&gt;&lt;/div&gt;" tags="Flowchart" id="9h3zB8wG0xILL8Boa0-e-35">
          <mxCell style="verticalAlign=middle;align=center;overflow=width;vsdxID=35;fillColor=#73ae42;gradientColor=none;shape=stencil(tVLLDsIgEPwajiQIMfFe638Qu22JCM2Ctv69kK0Rm9qDibeZndkXC1NV6PUATIoQ0V9gNE3smToyKY3rAU1MiKmaqar1CB36m2uIDzo7M7r6e64wUZ4UOUWKB9GdIH4irzWu8B42vRrPScNFXZzN+5mvl3qJXE8mcPRRR+Pdh2Y1dsBTE95a3c0TkBRGgKEIb6wg1/r+ssCXd/vLCgm8z9caa+n6pb48dwrRV1H1Ew==);strokeColor=#ffffff;spacingTop=-1;spacingBottom=-1;spacingLeft=-1;spacingRight=-1;points=[[0.5,1,0],[0.5,0,0],[0,0.5,0],[1,0.5,0]];labelBackgroundColor=none;rounded=0;html=1;whiteSpace=wrap;" vertex="1" parent="1">
            <mxGeometry x="1882" y="130" width="100" height="40" as="geometry" />
          </mxCell>
        </UserObject>
        <UserObject label="&lt;div style=&quot;font-size: 1px&quot;&gt;&lt;p style=&quot;text-align:center;margin-left:0;margin-right:0;margin-top:0px;margin-bottom:0px;text-indent:0;vertical-align:middle;direction:ltr;&quot;&gt;&lt;font style=&quot;font-size:11.29px;font-family:Calibri;color:#ffffff;direction:ltr;letter-spacing:0px;line-height:120%;opacity:1&quot;&gt;End&lt;br/&gt;&lt;/font&gt;&lt;/p&gt;&lt;/div&gt;" tags="Flowchart" id="9h3zB8wG0xILL8Boa0-e-36">
          <mxCell style="verticalAlign=middle;align=center;overflow=width;vsdxID=36;fillColor=#73ae42;gradientColor=none;shape=stencil(tVLLDsIgEPwajiQIMfFe638Qu22JCM2Ctv69kK0Rm9qDibeZndkXC1NV6PUATIoQ0V9gNE3smToyKY3rAU1MiKmaqar1CB36m2uIDzo7M7r6e64wUZ4UOUWKB9GdIH4irzWu8B42vRrPScNFXZzN+5mvl3qJXE8mcPRRR+Pdh2Y1dsBTE95a3c0TkBRGgKEIb6wg1/r+ssCXd/vLCgm8z9caa+n6pb48dwrRV1H1Ew==);strokeColor=#ffffff;spacingTop=-1;spacingBottom=-1;spacingLeft=-1;spacingRight=-1;points=[[0.5,1,0],[0.5,0,0],[0,0.5,0],[1,0.5,0]];labelBackgroundColor=none;rounded=0;html=1;whiteSpace=wrap;" vertex="1" parent="1">
            <mxGeometry x="1882" y="270" width="100" height="40" as="geometry" />
          </mxCell>
        </UserObject>
        <UserObject label="&lt;div style=&quot;font-size: 1px&quot;&gt;&lt;p style=&quot;text-align:center;margin-left:0;margin-right:0;margin-top:0px;margin-bottom:0px;text-indent:0;vertical-align:middle;direction:ltr;&quot;&gt;&lt;font style=&quot;font-size:11.29px;font-family:Calibri;color:#ffffff;direction:ltr;letter-spacing:0px;line-height:120%;opacity:1&quot;&gt;End&lt;br/&gt;&lt;/font&gt;&lt;/p&gt;&lt;/div&gt;" tags="Flowchart" id="9h3zB8wG0xILL8Boa0-e-37">
          <mxCell style="verticalAlign=middle;align=center;overflow=width;vsdxID=37;fillColor=#73ae42;gradientColor=none;shape=stencil(tVLLDsIgEPwajiQIMfFe638Qu22JCM2Ctv69kK0Rm9qDibeZndkXC1NV6PUATIoQ0V9gNE3smToyKY3rAU1MiKmaqar1CB36m2uIDzo7M7r6e64wUZ4UOUWKB9GdIH4irzWu8B42vRrPScNFXZzN+5mvl3qJXE8mcPRRR+Pdh2Y1dsBTE95a3c0TkBRGgKEIb6wg1/r+ssCXd/vLCgm8z9caa+n6pb48dwrRV1H1Ew==);strokeColor=#ffffff;spacingTop=-1;spacingBottom=-1;spacingLeft=-1;spacingRight=-1;points=[[0.5,1,0],[0.5,0,0],[0,0.5,0],[1,0.5,0]];labelBackgroundColor=none;rounded=0;html=1;whiteSpace=wrap;" vertex="1" parent="1">
            <mxGeometry x="1882" y="531" width="100" height="40" as="geometry" />
          </mxCell>
        </UserObject>
        <UserObject label="" tags="Background" id="9h3zB8wG0xILL8Boa0-e-38">
          <mxCell style="vsdxID=74;fillColor=#849e33;gradientColor=none;shape=stencil(lZLdDsIgDIWfppcuSI266znfY8mYEBEWhn9vL0jUwBIHd4f2nOYjLWAz8W5kQMlkjT6zu+gtBzwApUJxZoR1CrAFbAZt2Mnoq+rDe+y806uLvvkJj5AjFe58iJJnKKxoXVf7d+kYAlKof4HNgj8yrwkpGD1nieFdd4tF9PPEAv4HOOsDOTxO/HYxCCnDKr/97EUVkiT2CCNBcCI9H1cKp4ftCw==);strokeColor=#849e33;points=[[1,1,0],[0,1,0]];labelBackgroundColor=#ffffff;rounded=0;html=1;whiteSpace=wrap;" vertex="1" parent="1">
            <mxGeometry x="31" y="215" width="2156" height="1" as="geometry" />
          </mxCell>
        </UserObject>
        <UserObject label="" tags="Background" id="9h3zB8wG0xILL8Boa0-e-39">
          <mxCell style="vsdxID=75;fillColor=#849e33;gradientColor=none;shape=stencil(lZLdDsIgDIWfppcuSI266znfY8mYEBEWhn9vL0jUwBIHd4f2nOYjLWAz8W5kQMlkjT6zu+gtBzwApUJxZoR1CrAFbAZt2Mnoq+rDe+y806uLvvkJj5AjFe58iJJnKKxoXVf7d+kYAlKof4HNgj8yrwkpGD1nieFdd4tF9PPEAv4HOOsDOTxO/HYxCCnDKr/97EUVkiT2CCNBcCI9H1cKp4ftCw==);strokeColor=#849e33;points=[[1,1,0],[0,1,0]];labelBackgroundColor=#ffffff;rounded=0;html=1;whiteSpace=wrap;" vertex="1" parent="1">
            <mxGeometry x="30" y="427" width="2153" height="1" as="geometry" />
          </mxCell>
        </UserObject>
        <UserObject label="" tags="Background" id="9h3zB8wG0xILL8Boa0-e-40">
          <mxCell style="vsdxID=76;fillColor=#849e33;gradientColor=none;shape=stencil(lZLdDsIgDIWfppcuSI266znfY8mYEBEWhn9vL0jUwBIHd4f2nOYjLWAz8W5kQMlkjT6zu+gtBzwApUJxZoR1CrAFbAZt2Mnoq+rDe+y806uLvvkJj5AjFe58iJJnKKxoXVf7d+kYAlKof4HNgj8yrwkpGD1nieFdd4tF9PPEAv4HOOsDOTxO/HYxCCnDKr/97EUVkiT2CCNBcCI9H1cKp4ftCw==);strokeColor=#849e33;points=[[1,1,0],[0,1,0]];labelBackgroundColor=#ffffff;rounded=0;html=1;whiteSpace=wrap;" vertex="1" parent="1">
            <mxGeometry x="32" y="659" width="2149" height="1" as="geometry" />
          </mxCell>
        </UserObject>
        <UserObject label="&lt;div style=&quot;font-size: 1px&quot;&gt;&lt;p style=&quot;text-align:center;margin-left:0;margin-right:0;margin-top:0px;margin-bottom:0px;text-indent:0;vertical-align:middle;direction:ltr;&quot;&gt;&lt;font style=&quot;font-size:11.29px;font-family:Calibri;color:#ffffff;direction:ltr;letter-spacing:0px;line-height:120%;opacity:1&quot;&gt;KBL HRMS Team&lt;br/&gt;&lt;/font&gt;&lt;/p&gt;&lt;/div&gt;" tags="Flowchart" id="9h3zB8wG0xILL8Boa0-e-41">
          <mxCell style="verticalAlign=middle;align=center;overflow=width;vsdxID=77;fillColor=#5b9bd5;gradientColor=none;shape=stencil(UzV2Ls5ILEhVNTIoLinKz04tz0wpyVA1dlE1MsrMy0gtyiwBslSNXVWNndPyi1LTi/JL81Ig/IJEkEoQKze/DGRCBUSfoYWeIUiTkUElVMDAAMx3g6jOycxDUm1hqGdJvGqYJEyxKSkm4zMX3c141BLvAkIhAWQgAjEtMycHEgfI8uiBDhSCRJixKwA=);strokeColor=#ffffff;spacingTop=-1;spacingBottom=-1;spacingLeft=-1;spacingRight=-1;points=[[1,0.5,0],[0.5,0.5,0],[0.5,0,0]];labelBackgroundColor=none;rounded=0;html=1;whiteSpace=wrap;" vertex="1" parent="1">
            <mxGeometry x="56" y="106" width="132" height="60" as="geometry" />
          </mxCell>
        </UserObject>
        <UserObject label="&lt;div style=&quot;font-size: 1px&quot;&gt;&lt;p style=&quot;text-align:center;margin-left:0;margin-right:0;margin-top:0px;margin-bottom:0px;text-indent:0;vertical-align:middle;direction:ltr;&quot;&gt;&lt;font style=&quot;font-size:11.29px;font-family:Calibri;color:#ffffff;direction:ltr;letter-spacing:0px;line-height:120%;opacity:1&quot;&gt;Client Manager / &lt;br/&gt;&lt;/font&gt;&lt;/p&gt;&lt;p style=&quot;text-align:center;margin-left:0;margin-right:0;margin-top:0px;margin-bottom:0px;text-indent:0;vertical-align:middle;direction:ltr;&quot;&gt;&lt;font style=&quot;font-size:11.29px;font-family:Calibri;color:#ffffff;direction:ltr;letter-spacing:0px;line-height:120%;opacity:1&quot;&gt;Kovaion PM&lt;br/&gt;&lt;/font&gt;&lt;/p&gt;&lt;/div&gt;" tags="Flowchart" id="9h3zB8wG0xILL8Boa0-e-42">
          <mxCell style="verticalAlign=middle;align=center;overflow=width;vsdxID=78;fillColor=#5b9bd5;gradientColor=none;shape=stencil(UzV2Ls5ILEhVNTIoLinKz04tz0wpyVA1dlE1MsrMy0gtyiwBslSNXVWNndPyi1LTi/JL81Ig/IJEkEoQKze/DGRCBUSfoYWegSVIl5FBJVTEwADMd4Moz8nMQ1JuYahnaUi8cpgkTLEpSUbjMxjD2XgUE+8GgqEBZCBCMi0zJwcSEcjy6CEPFILEmrErAA==);strokeColor=#ffffff;spacingTop=-1;spacingBottom=-1;spacingLeft=-1;spacingRight=-1;points=[[0,0.5,0],[1,0.5,0],[0.5,1,0],[0.5,0,0]];labelBackgroundColor=none;rounded=0;html=1;whiteSpace=wrap;" vertex="1" parent="1">
            <mxGeometry x="55" y="307" width="132" height="60" as="geometry" />
          </mxCell>
        </UserObject>
        <UserObject label="" tags="Background" id="9h3zB8wG0xILL8Boa0-e-43">
          <mxCell style="vsdxID=81;rotation=90;fillColor=#ffffff;gradientColor=none;shape=stencil(lZLLDsIgEEW/hqWEhwtY1/ofTUqFiNBQfP29IFEDTSrsLsO9kzOZAbRb5DALQNDinT2Luxq9BPQACFFGCqd8UID2gHaTdeLk7NWM6T0P0RnVxd5ih0fKYYhxDBH0TIUd4Ryyd+mYAlqZrcB+248yM0aoofWaJYfnDDLeRL9O/MH/AFcNUMMTxG8Xk9I6rfL7X72oRpLCnmEUCEGU5xNK6fRo/wI=);strokeColor=#5b9bd5;points=[[1,1,0],[0,1,0]];labelBackgroundColor=#ffffff;rounded=0;html=1;whiteSpace=wrap;" vertex="1" parent="1">
            <mxGeometry x="-150" y="446" width="719" height="1" as="geometry" />
          </mxCell>
        </UserObject>
        <UserObject label="&lt;div style=&quot;font-size: 1px&quot;&gt;&lt;p style=&quot;text-align:center;margin-left:0;margin-right:0;margin-top:0px;margin-bottom:0px;text-indent:0;vertical-align:middle;direction:ltr;&quot;&gt;&lt;font style=&quot;font-size:11.29px;font-family:Calibri;color:#ffffff;direction:ltr;letter-spacing:0px;line-height:120%;opacity:1&quot;&gt;Kovaion Technical Team&lt;br/&gt;&lt;/font&gt;&lt;/p&gt;&lt;/div&gt;" tags="Flowchart" id="9h3zB8wG0xILL8Boa0-e-44">
          <mxCell style="verticalAlign=middle;align=center;overflow=width;vsdxID=82;fillColor=#5b9bd5;gradientColor=none;shape=stencil(UzV2Ls5ILEhVNTIoLinKz04tz0wpyVA1dlE1MsrMy0gtyiwBslSNXVWNndPyi1LTi/JL81Ig/IJEkEoQKze/DGRCBUSfoYWeIUiTkUElVMDAAMx3g6jOycxDUm1hqGdJvGqYJEyxKSkm4zMX3c141BLvAkIhAWQgAjEtMycHEgfI8uiBDhSCRJixKwA=);strokeColor=#ffffff;spacingTop=-1;spacingBottom=-1;spacingLeft=-1;spacingRight=-1;points=[[1,0.5,0],[0.5,0.5,0],[0.5,0,0]];labelBackgroundColor=none;rounded=0;html=1;whiteSpace=wrap;" vertex="1" parent="1">
            <mxGeometry x="56" y="508" width="132" height="60" as="geometry" />
          </mxCell>
        </UserObject>
        <UserObject label="&lt;div style=&quot;font-size: 1px&quot;&gt;&lt;p style=&quot;text-align:center;margin-left:0;margin-right:0;margin-top:0px;margin-bottom:0px;text-indent:0;vertical-align:middle;direction:ltr;&quot;&gt;&lt;font style=&quot;font-size:11.29px;font-family:Calibri;color:#ffffff;direction:ltr;letter-spacing:0px;line-height:120%;opacity:1&quot;&gt;Kovaion Admin Team&lt;br/&gt;&lt;/font&gt;&lt;/p&gt;&lt;/div&gt;" tags="Flowchart" id="9h3zB8wG0xILL8Boa0-e-45">
          <mxCell style="verticalAlign=middle;align=center;overflow=width;vsdxID=83;fillColor=#5b9bd5;gradientColor=none;shape=stencil(UzV2Ls5ILEhVNTIoLinKz04tz0wpyVA1dlE1MsrMy0gtyiwBslSNXVWNndPyi1LTi/JL81Ig/IJEkEoQKze/DGRCBUSfoYWegSVIl5FBJVTEwADMd4Moz8nMQ1JuYahnaUi8cpgkTLEpSUbjMxjD2XgUE+8GgqEBZCBCMi0zJwcSEcjy6CEPFILEmrErAA==);strokeColor=#ffffff;spacingTop=-1;spacingBottom=-1;spacingLeft=-1;spacingRight=-1;points=[[0,0.5,0],[1,0.5,0],[0.5,1,0],[0.5,0,0]];labelBackgroundColor=none;rounded=0;html=1;whiteSpace=wrap;" vertex="1" parent="1">
            <mxGeometry x="55" y="708" width="132" height="60" as="geometry" />
          </mxCell>
        </UserObject>
        <UserObject label="&lt;div style=&quot;font-size: 1px&quot;&gt;&lt;p style=&quot;text-align:center;margin-left:0;margin-right:0;margin-top:0px;margin-bottom:0px;text-indent:0;vertical-align:middle;direction:ltr;&quot;&gt;&lt;font style=&quot;font-size:11.29px;font-family:Calibri;color:#ffffff;direction:ltr;letter-spacing:0px;line-height:120%;opacity:1&quot;&gt;Analyze further&lt;br/&gt;&lt;/font&gt;&lt;/p&gt;&lt;/div&gt;" tags="Connector Flowchart" id="9h3zB8wG0xILL8Boa0-e-46">
          <mxCell style="verticalAlign=middle;align=center;overflow=width;vsdxID=86;fillColor=#4271c6;gradientColor=none;shape=stencil(UzV2Ls5ILEhVNTIoLinKz04tz0wpyVA1dlE1MsrMy0gtyiwBslSNXVWNndPyi1LTi/JL81Ig/IJEkEoQKze/DGRCBUSfAUiHkUElMs8NojAnMw+nQlM8Kk1RlRoa4FELkyTGXHS1RDsWRSGQgQiLtMycHEhQIsujhx1QCBLuxq4A);strokeColor=#ffffff;spacingTop=-1;spacingBottom=-1;spacingLeft=-1;spacingRight=-1;points=[[0.5,0,0],[1,0.5,0],[0.5,1,0],[0,0.5,0]];labelBackgroundColor=none;rounded=0;html=1;whiteSpace=wrap;" vertex="1" parent="1">
            <mxGeometry x="884" y="134" width="48" height="48" as="geometry" />
          </mxCell>
        </UserObject>
        <UserObject label="&lt;div style=&quot;font-size: 1px&quot;&gt;&lt;p style=&quot;text-align:center;margin-left:0;margin-right:0;margin-top:0px;margin-bottom:0px;text-indent:0;vertical-align:middle;direction:ltr;&quot;&gt;&lt;font style=&quot;font-size:25.4px;font-family:Calibri;color:#000000;direction:ltr;letter-spacing:0px;line-height:120%;opacity:1&quot;&gt;&lt;b&gt;Karnataka Bank Limited - Application Maintenance &amp;amp; Support&lt;br/&gt;&lt;/b&gt;&lt;/font&gt;&lt;/p&gt;&lt;p style=&quot;text-align:center;margin-left:0;margin-right:0;margin-top:0px;margin-bottom:0px;text-indent:0;vertical-align:middle;direction:ltr;&quot;&gt;&lt;font style=&quot;font-size:19.76px;font-family:Calibri;color:#000000;direction:ltr;letter-spacing:0px;line-height:120%;opacity:1&quot;&gt;&lt;b&gt;Process Flow&lt;br/&gt;&lt;/b&gt;&lt;/font&gt;&lt;/p&gt;&lt;/div&gt;" tags="Background" id="9h3zB8wG0xILL8Boa0-e-47">
          <mxCell style="verticalAlign=middle;align=center;overflow=width;vsdxID=88;fillColor=none;gradientColor=none;shape=stencil(nZBLDoAgDERP0z3SIyjew0SURgSD+Lu9kMZoXLhwN9O+tukAlrNpJg1SzDH4QW/URgNYgZTkjA4UkwJUgGXng+6DX1zLfmoymdXo17xh5zmRJ6Q42BWCfc2oJfdAr+Yv+AP9Cb7OJ3H/2JG1HNGz/84klThPVCc=);strokeColor=none;points=[];labelBackgroundColor=none;rounded=0;html=1;whiteSpace=wrap;" vertex="1" parent="1">
            <mxGeometry x="820" y="29" width="664" height="64" as="geometry" />
          </mxCell>
        </UserObject>
        <UserObject label="&lt;div style=&quot;font-size: 1px&quot;&gt;&lt;p style=&quot;text-align:center;margin-left:0;margin-right:0;margin-top:0px;margin-bottom:0px;text-indent:0;vertical-align:middle;direction:ltr;&quot;&gt;&lt;font style=&quot;font-size:11.29px;font-family:Calibri;color:#ffffff;direction:ltr;letter-spacing:0px;line-height:120%;opacity:1&quot;&gt;Notify client with Test Evidences&lt;br/&gt;&lt;/font&gt;&lt;/p&gt;&lt;/div&gt;" tags="Flowchart" id="9h3zB8wG0xILL8Boa0-e-48">
          <mxCell style="verticalAlign=middle;align=center;overflow=width;vsdxID=89;fillColor=#5b9bd5;gradientColor=none;shape=stencil(nZBbDoQgDEVX03+k7sDHPkxEaWTAIL52L6QxOn6Yyfzd25626QUsJt2MCqSYgneDWqkNGrAEKclq5SlEBVgBFp3zqvduti37sUlkUh+3pA0bz4k0IcXOLhPsa0YN2Rt6Nv+CX9BvMP+ZfNyP4nqyI2M4o3v/GUoscaBYHQ==);strokeColor=#ffffff;spacingTop=-1;spacingBottom=-1;spacingLeft=-1;spacingRight=-1;points=[[0,0.5,0],[1,0.5,0],[0.5,1,0],[0.5,0.2,0]];labelBackgroundColor=none;rounded=0;html=1;whiteSpace=wrap;" vertex="1" parent="1">
            <mxGeometry x="974" y="461" width="100" height="60" as="geometry" />
          </mxCell>
        </UserObject>
        <UserObject label="" tags="Connector" id="9h3zB8wG0xILL8Boa0-e-49">
          <mxCell style="vsdxID=91;edgeStyle=none;startArrow=none;endArrow=block;startSize=5;endSize=5;strokeColor=#5088bb;spacingTop=0;spacingBottom=0;spacingLeft=0;spacingRight=0;verticalAlign=middle;html=1;labelBackgroundColor=#ffffff;rounded=0;exitX=0.5;exitY=0.2;exitDx=0;exitDy=0;exitPerimeter=0;entryX=0.5;entryY=1;entryDx=0;entryDy=0;entryPerimeter=0;" edge="1" parent="1" source="9h3zB8wG0xILL8Boa0-e-48" target="9h3zB8wG0xILL8Boa0-e-28">
            <mxGeometry relative="1" as="geometry">
              <mxPoint x="-10" y="-1" as="offset" />
              <Array as="points">
                <mxPoint x="1024" y="445.66" />
                <mxPoint x="1023.23" y="445.66" />
              </Array>
            </mxGeometry>
          </mxCell>
        </UserObject>
        <UserObject label="&lt;div style=&quot;font-size: 1px&quot;&gt;&lt;p style=&quot;text-align:center;margin-left:0;margin-right:0;margin-top:0px;margin-bottom:0px;text-indent:0;vertical-align:middle;direction:ltr;&quot;&gt;&lt;font style=&quot;font-size:11.29px;font-family:Calibri;color:#2e4f6c;direction:ltr;letter-spacing:0px;line-height:120%;opacity:1&quot;&gt;No&lt;br/&gt;&lt;/font&gt;&lt;/p&gt;&lt;/div&gt;" tags="Connector" id="9h3zB8wG0xILL8Boa0-e-50">
          <mxCell style="vsdxID=90;edgeStyle=none;startArrow=none;endArrow=block;startSize=5;endSize=5;strokeColor=#5088bb;spacingTop=0;spacingBottom=0;spacingLeft=0;spacingRight=0;verticalAlign=middle;html=1;labelBackgroundColor=#ffffff;rounded=0;align=center;exitX=1;exitY=0.5;exitDx=0;exitDy=0;exitPerimeter=0;entryX=0.5;entryY=1;entryDx=0;entryDy=0;entryPerimeter=0;" edge="1" parent="1" source="9h3zB8wG0xILL8Boa0-e-26" target="9h3zB8wG0xILL8Boa0-e-48">
            <mxGeometry relative="1" as="geometry">
              <mxPoint y="-15" as="offset" />
              <Array as="points">
                <mxPoint x="1024.37" y="735" />
              </Array>
            </mxGeometry>
          </mxCell>
        </UserObject>
        <UserObject label="" tags="Connector" id="9h3zB8wG0xILL8Boa0-e-51">
          <mxCell style="vsdxID=42;edgeStyle=none;startArrow=none;endArrow=block;startSize=5;endSize=5;strokeColor=#5088bb;spacingTop=0;spacingBottom=0;spacingLeft=0;spacingRight=0;verticalAlign=middle;html=1;labelBackgroundColor=#ffffff;rounded=0;exitX=0;exitY=0.5;exitDx=0;exitDy=0;exitPerimeter=0;entryX=1;entryY=0.5;entryDx=0;entryDy=0;entryPerimeter=0;" edge="1" parent="1" source="9h3zB8wG0xILL8Boa0-e-6" target="9h3zB8wG0xILL8Boa0-e-5">
            <mxGeometry relative="1" as="geometry">
              <mxPoint as="offset" />
              <Array as="points" />
            </mxGeometry>
          </mxCell>
        </UserObject>
        <UserObject label="&lt;div style=&quot;font-size: 1px&quot;&gt;&lt;p style=&quot;text-align:center;margin-left:0;margin-right:0;margin-top:0px;margin-bottom:0px;text-indent:0;vertical-align:middle;direction:ltr;&quot;&gt;&lt;font style=&quot;font-size:11.29px;font-family:Calibri;color:#2e4f6c;direction:ltr;letter-spacing:0px;line-height:120%;opacity:1&quot;&gt;Yes&lt;br/&gt;&lt;/font&gt;&lt;/p&gt;&lt;/div&gt;" tags="Connector" id="9h3zB8wG0xILL8Boa0-e-52">
          <mxCell style="vsdxID=41;edgeStyle=none;startArrow=none;endArrow=block;startSize=5;endSize=5;strokeColor=#5088bb;spacingTop=0;spacingBottom=0;spacingLeft=0;spacingRight=0;verticalAlign=middle;html=1;labelBackgroundColor=#ffffff;rounded=0;align=center;exitX=0.49624060150375937;exitY=1.0135135135135136;exitDx=0;exitDy=0;exitPerimeter=0;entryX=0.5;entryY=0;entryDx=0;entryDy=0;entryPerimeter=0;" edge="1" parent="1" source="9h3zB8wG0xILL8Boa0-e-3" target="9h3zB8wG0xILL8Boa0-e-6">
            <mxGeometry relative="1" as="geometry">
              <mxPoint x="-10" as="offset" />
              <Array as="points">
                <mxPoint x="762" y="210.34" />
                <mxPoint x="761.99" y="210.34" />
              </Array>
            </mxGeometry>
          </mxCell>
        </UserObject>
        <UserObject label="" tags="Connector" id="9h3zB8wG0xILL8Boa0-e-53">
          <mxCell style="vsdxID=40;edgeStyle=none;startArrow=none;endArrow=block;startSize=5;endSize=5;strokeColor=#5088bb;spacingTop=0;spacingBottom=0;spacingLeft=0;spacingRight=0;verticalAlign=middle;html=1;labelBackgroundColor=#ffffff;rounded=0;exitX=1;exitY=0.5;exitDx=0;exitDy=0;exitPerimeter=0;entryX=0;entryY=0.5135135135135135;entryDx=0;entryDy=0;entryPerimeter=0;" edge="1" parent="1" source="9h3zB8wG0xILL8Boa0-e-2" target="9h3zB8wG0xILL8Boa0-e-3">
            <mxGeometry relative="1" as="geometry">
              <mxPoint as="offset" />
              <Array as="points">
                <mxPoint x="678.34" y="158" />
                <mxPoint x="678.34" y="157.99" />
              </Array>
            </mxGeometry>
          </mxCell>
        </UserObject>
        <UserObject label="" tags="Connector" id="9h3zB8wG0xILL8Boa0-e-54">
          <mxCell style="vsdxID=39;edgeStyle=none;startArrow=none;endArrow=block;startSize=5;endSize=5;strokeColor=#5088bb;spacingTop=0;spacingBottom=0;spacingLeft=0;spacingRight=0;verticalAlign=middle;html=1;labelBackgroundColor=#ffffff;rounded=0;exitX=1;exitY=0.5;exitDx=0;exitDy=0;exitPerimeter=0;entryX=0;entryY=0.5;entryDx=0;entryDy=0;entryPerimeter=0;" edge="1" parent="1" source="9h3zB8wG0xILL8Boa0-e-1" target="9h3zB8wG0xILL8Boa0-e-2">
            <mxGeometry relative="1" as="geometry">
              <mxPoint x="-1" as="offset" />
              <Array as="points" />
            </mxGeometry>
          </mxCell>
        </UserObject>
        <UserObject label="" tags="Connector" id="9h3zB8wG0xILL8Boa0-e-55">
          <mxCell style="vsdxID=43;edgeStyle=none;startArrow=none;endArrow=block;startSize=5;endSize=5;strokeColor=#5088bb;spacingTop=0;spacingBottom=0;spacingLeft=0;spacingRight=0;verticalAlign=middle;html=1;labelBackgroundColor=#ffffff;rounded=0;exitX=0;exitY=0.5;exitDx=0;exitDy=0;exitPerimeter=0;entryX=1.0084033613445378;entryY=0.5;entryDx=0;entryDy=0;entryPerimeter=0;" edge="1" parent="1" source="9h3zB8wG0xILL8Boa0-e-5" target="9h3zB8wG0xILL8Boa0-e-7">
            <mxGeometry relative="1" as="geometry">
              <mxPoint x="-1" as="offset" />
              <Array as="points">
                <mxPoint x="536.33" y="274" />
                <mxPoint x="536.33" y="273.99" />
              </Array>
            </mxGeometry>
          </mxCell>
        </UserObject>
        <UserObject label="&lt;div style=&quot;font-size: 1px&quot;&gt;&lt;p style=&quot;text-align:center;margin-left:0;margin-right:0;margin-top:0px;margin-bottom:0px;text-indent:0;vertical-align:middle;direction:ltr;&quot;&gt;&lt;font style=&quot;font-size:11.29px;font-family:Calibri;color:#2e4f6c;direction:ltr;letter-spacing:0px;line-height:120%;opacity:1&quot;&gt;No&lt;br/&gt;&lt;/font&gt;&lt;/p&gt;&lt;/div&gt;" tags="Connector" id="9h3zB8wG0xILL8Boa0-e-56">
          <mxCell style="vsdxID=44;edgeStyle=none;startArrow=none;endArrow=block;startSize=5;endSize=5;strokeColor=#5088bb;spacingTop=0;spacingBottom=0;spacingLeft=0;spacingRight=0;verticalAlign=middle;html=1;labelBackgroundColor=#ffffff;rounded=0;align=center;exitX=0;exitY=0.5;exitDx=0;exitDy=0;exitPerimeter=0;entryX=1;entryY=0.5;entryDx=0;entryDy=0;entryPerimeter=0;" edge="1" parent="1" source="9h3zB8wG0xILL8Boa0-e-7" target="9h3zB8wG0xILL8Boa0-e-10">
            <mxGeometry relative="1" as="geometry">
              <mxPoint as="offset" />
              <Array as="points">
                <mxPoint x="384.66" y="274" />
                <mxPoint x="384.66" y="273.99" />
              </Array>
            </mxGeometry>
          </mxCell>
        </UserObject>
        <UserObject label="&lt;div style=&quot;font-size: 1px&quot;&gt;&lt;p style=&quot;text-align:center;margin-left:0;margin-right:0;margin-top:0px;margin-bottom:0px;text-indent:0;vertical-align:middle;direction:ltr;&quot;&gt;&lt;font style=&quot;font-size:11.29px;font-family:Calibri;color:#2e4f6c;direction:ltr;letter-spacing:0px;line-height:120%;opacity:1&quot;&gt;Yes&lt;br/&gt;&lt;/font&gt;&lt;/p&gt;&lt;/div&gt;" tags="Connector" id="9h3zB8wG0xILL8Boa0-e-57">
          <mxCell style="vsdxID=45;edgeStyle=none;startArrow=none;endArrow=block;startSize=5;endSize=5;strokeColor=#5088bb;spacingTop=0;spacingBottom=0;spacingLeft=0;spacingRight=0;verticalAlign=middle;html=1;labelBackgroundColor=#ffffff;rounded=0;align=center;exitX=0.5042016806722689;exitY=1;exitDx=0;exitDy=0;exitPerimeter=0;entryX=0.5;entryY=0;entryDx=0;entryDy=0;entryPerimeter=0;" edge="1" parent="1" source="9h3zB8wG0xILL8Boa0-e-7" target="9h3zB8wG0xILL8Boa0-e-9">
            <mxGeometry relative="1" as="geometry">
              <mxPoint x="9" y="-1" as="offset" />
              <Array as="points">
                <mxPoint x="460" y="319.34" />
                <mxPoint x="460.01" y="319.34" />
              </Array>
            </mxGeometry>
          </mxCell>
        </UserObject>
        <UserObject label="" tags="Connector" id="9h3zB8wG0xILL8Boa0-e-58">
          <mxCell style="vsdxID=47;edgeStyle=none;startArrow=none;endArrow=block;startSize=5;endSize=5;strokeColor=#5088bb;spacingTop=0;spacingBottom=0;spacingLeft=0;spacingRight=0;verticalAlign=middle;html=1;labelBackgroundColor=#ffffff;rounded=0;exitX=0.66;exitY=0;exitDx=0;exitDy=0;exitPerimeter=0;entryX=0.5;entryY=1;entryDx=0;entryDy=0;entryPerimeter=0;" edge="1" parent="1" source="9h3zB8wG0xILL8Boa0-e-9" target="9h3zB8wG0xILL8Boa0-e-11">
            <mxGeometry relative="1" as="geometry">
              <mxPoint x="-1" as="offset" />
              <Array as="points">
                <mxPoint x="476" y="318.28" />
                <mxPoint x="920.17" y="318.28" />
              </Array>
            </mxGeometry>
          </mxCell>
        </UserObject>
        <UserObject label="" tags="Connector" id="9h3zB8wG0xILL8Boa0-e-59">
          <mxCell style="vsdxID=48;edgeStyle=none;startArrow=none;endArrow=block;startSize=5;endSize=5;strokeColor=#5088bb;spacingTop=0;spacingBottom=0;spacingLeft=0;spacingRight=0;verticalAlign=middle;html=1;labelBackgroundColor=#ffffff;rounded=0;exitX=1;exitY=0.5;exitDx=0;exitDy=0;exitPerimeter=0;entryX=0;entryY=0.5;entryDx=0;entryDy=0;entryPerimeter=0;jumpStyle=arc;" edge="1" parent="1" source="9h3zB8wG0xILL8Boa0-e-11" target="9h3zB8wG0xILL8Boa0-e-12">
            <mxGeometry relative="1" as="geometry">
              <mxPoint x="-1" as="offset" />
              <Array as="points">
                <mxPoint x="985.34" y="274" />
                <mxPoint x="985.34" y="273.99" />
                <mxPoint x="1020.26" y="273.99" />
              </Array>
            </mxGeometry>
          </mxCell>
        </UserObject>
        <UserObject label="&lt;div style=&quot;font-size: 1px&quot;&gt;&lt;p style=&quot;text-align:center;margin-left:0;margin-right:0;margin-top:0px;margin-bottom:0px;text-indent:0;vertical-align:middle;direction:ltr;&quot;&gt;&lt;font style=&quot;font-size:11.29px;font-family:Calibri;color:#2e4f6c;direction:ltr;letter-spacing:0px;line-height:120%;opacity:1&quot;&gt;Yes&lt;br/&gt;&lt;/font&gt;&lt;/p&gt;&lt;/div&gt;" tags="Connector" id="9h3zB8wG0xILL8Boa0-e-60">
          <mxCell style="vsdxID=49;edgeStyle=none;startArrow=none;endArrow=block;startSize=5;endSize=5;strokeColor=#5088bb;spacingTop=0;spacingBottom=0;spacingLeft=0;spacingRight=0;verticalAlign=middle;html=1;labelBackgroundColor=#ffffff;rounded=0;align=center;exitX=0.5;exitY=1;exitDx=0;exitDy=0;exitPerimeter=0;entryX=0.5078125;entryY=0;entryDx=0;entryDy=0;entryPerimeter=0;" edge="1" parent="1" source="9h3zB8wG0xILL8Boa0-e-12" target="9h3zB8wG0xILL8Boa0-e-14">
            <mxGeometry relative="1" as="geometry">
              <mxPoint x="10" y="-1" as="offset" />
              <Array as="points">
                <mxPoint x="1152" y="319.34" />
                <mxPoint x="1152.01" y="319.34" />
              </Array>
            </mxGeometry>
          </mxCell>
        </UserObject>
        <UserObject label="" tags="Connector" id="9h3zB8wG0xILL8Boa0-e-61">
          <mxCell style="vsdxID=50;edgeStyle=none;startArrow=none;endArrow=block;startSize=5;endSize=5;strokeColor=#5088bb;spacingTop=0;spacingBottom=0;spacingLeft=0;spacingRight=0;verticalAlign=middle;html=1;labelBackgroundColor=#ffffff;rounded=0;exitX=1.0078125;exitY=0.5;exitDx=0;exitDy=0;exitPerimeter=0;entryX=0;entryY=0.5;entryDx=0;entryDy=0;entryPerimeter=0;" edge="1" parent="1" source="9h3zB8wG0xILL8Boa0-e-14" target="9h3zB8wG0xILL8Boa0-e-15">
            <mxGeometry relative="1" as="geometry">
              <mxPoint as="offset" />
              <Array as="points">
                <mxPoint x="1231.34" y="491" />
                <mxPoint x="1231.34" y="491.01" />
              </Array>
            </mxGeometry>
          </mxCell>
        </UserObject>
        <UserObject label="" tags="Connector" id="9h3zB8wG0xILL8Boa0-e-62">
          <mxCell style="vsdxID=51;edgeStyle=none;startArrow=none;endArrow=block;startSize=5;endSize=5;strokeColor=#5088bb;spacingTop=0;spacingBottom=0;spacingLeft=0;spacingRight=0;verticalAlign=middle;html=1;labelBackgroundColor=#ffffff;rounded=0;exitX=1;exitY=0.5;exitDx=0;exitDy=0;exitPerimeter=0;entryX=0;entryY=0.5;entryDx=0;entryDy=0;entryPerimeter=0;" edge="1" parent="1" source="9h3zB8wG0xILL8Boa0-e-15" target="9h3zB8wG0xILL8Boa0-e-16">
            <mxGeometry relative="1" as="geometry">
              <mxPoint as="offset" />
              <Array as="points">
                <mxPoint x="1352.67" y="491" />
                <mxPoint x="1352.67" y="491.01" />
              </Array>
            </mxGeometry>
          </mxCell>
        </UserObject>
        <UserObject label="" tags="Connector" id="9h3zB8wG0xILL8Boa0-e-63">
          <mxCell style="vsdxID=53;edgeStyle=none;startArrow=none;endArrow=block;startSize=5;endSize=5;strokeColor=#5088bb;spacingTop=0;spacingBottom=0;spacingLeft=0;spacingRight=0;verticalAlign=middle;html=1;labelBackgroundColor=#ffffff;rounded=0;exitX=0.5;exitY=1;exitDx=0;exitDy=0;exitPerimeter=0;entryX=0.5;entryY=0;entryDx=0;entryDy=0;entryPerimeter=0;" edge="1" parent="1" source="9h3zB8wG0xILL8Boa0-e-16" target="9h3zB8wG0xILL8Boa0-e-17">
            <mxGeometry relative="1" as="geometry">
              <mxPoint x="10" as="offset" />
              <Array as="points">
                <mxPoint x="1419" y="536.34" />
                <mxPoint x="1419.01" y="536.34" />
              </Array>
            </mxGeometry>
          </mxCell>
        </UserObject>
        <UserObject label="" tags="Connector" id="9h3zB8wG0xILL8Boa0-e-64">
          <mxCell style="vsdxID=54;edgeStyle=none;startArrow=none;endArrow=block;startSize=5;endSize=5;strokeColor=#5088bb;spacingTop=0;spacingBottom=0;spacingLeft=0;spacingRight=0;verticalAlign=middle;html=1;labelBackgroundColor=#ffffff;rounded=0;exitX=0;exitY=0.5;exitDx=0;exitDy=0;exitPerimeter=0;entryX=1;entryY=0.5;entryDx=0;entryDy=0;entryPerimeter=0;" edge="1" parent="1" source="9h3zB8wG0xILL8Boa0-e-17" target="9h3zB8wG0xILL8Boa0-e-18">
            <mxGeometry relative="1" as="geometry">
              <mxPoint x="-1" as="offset" />
              <Array as="points">
                <mxPoint x="1353.66" y="592" />
                <mxPoint x="1353.66" y="591.99" />
              </Array>
            </mxGeometry>
          </mxCell>
        </UserObject>
        <UserObject label="&lt;div style=&quot;font-size: 1px&quot;&gt;&lt;p style=&quot;text-align:center;margin-left:0;margin-right:0;margin-top:0px;margin-bottom:0px;text-indent:0;vertical-align:middle;direction:ltr;&quot;&gt;&lt;font style=&quot;font-size:11.29px;font-family:Calibri;color:#2e4f6c;direction:ltr;letter-spacing:0px;line-height:120%;opacity:1&quot;&gt;Yes&lt;br/&gt;&lt;/font&gt;&lt;/p&gt;&lt;/div&gt;" tags="Connector" id="9h3zB8wG0xILL8Boa0-e-65">
          <mxCell style="vsdxID=55;edgeStyle=none;startArrow=none;endArrow=block;startSize=5;endSize=5;strokeColor=#5088bb;spacingTop=0;spacingBottom=0;spacingLeft=0;spacingRight=0;verticalAlign=middle;html=1;labelBackgroundColor=#ffffff;rounded=0;align=center;exitX=0.5;exitY=0;exitDx=0;exitDy=0;exitPerimeter=0;entryX=0.5078125;entryY=1;entryDx=0;entryDy=0;entryPerimeter=0;" edge="1" parent="1" source="9h3zB8wG0xILL8Boa0-e-18" target="9h3zB8wG0xILL8Boa0-e-14">
            <mxGeometry relative="1" as="geometry">
              <mxPoint x="-10" y="-1" as="offset" />
              <Array as="points">
                <mxPoint x="1152" y="548.77" />
                <mxPoint x="1152" y="548.77" />
              </Array>
            </mxGeometry>
          </mxCell>
        </UserObject>
        <UserObject label="&lt;div style=&quot;font-size: 1px&quot;&gt;&lt;p style=&quot;text-align:center;margin-left:0;margin-right:0;margin-top:0px;margin-bottom:0px;text-indent:0;vertical-align:middle;direction:ltr;&quot;&gt;&lt;font style=&quot;font-size:11.29px;font-family:Calibri;color:#2e4f6c;direction:ltr;letter-spacing:0px;line-height:120%;opacity:1&quot;&gt;No&lt;br/&gt;&lt;/font&gt;&lt;/p&gt;&lt;/div&gt;" tags="Connector" id="9h3zB8wG0xILL8Boa0-e-66">
          <mxCell style="vsdxID=56;edgeStyle=none;startArrow=none;endArrow=block;startSize=5;endSize=5;strokeColor=#5088bb;spacingTop=0;spacingBottom=0;spacingLeft=0;spacingRight=0;verticalAlign=middle;html=1;labelBackgroundColor=#ffffff;rounded=0;align=center;exitX=0;exitY=0.5;exitDx=0;exitDy=0;exitPerimeter=0;entryX=1;entryY=0.5;entryDx=0;entryDy=0;entryPerimeter=0;jumpStyle=arc;" edge="1" parent="1" source="9h3zB8wG0xILL8Boa0-e-18" target="9h3zB8wG0xILL8Boa0-e-20">
            <mxGeometry relative="1" as="geometry">
              <mxPoint x="18" y="-2" as="offset" />
              <Array as="points">
                <mxPoint x="1086.66" y="592" />
                <mxPoint x="1086.66" y="592.02" />
                <mxPoint x="1027.91" y="592.02" />
              </Array>
            </mxGeometry>
          </mxCell>
        </UserObject>
        <UserObject label="" tags="Connector" id="9h3zB8wG0xILL8Boa0-e-67">
          <mxCell style="vsdxID=57;edgeStyle=none;startArrow=none;endArrow=block;startSize=5;endSize=5;strokeColor=#5088bb;spacingTop=0;spacingBottom=0;spacingLeft=0;spacingRight=0;verticalAlign=middle;html=1;labelBackgroundColor=#ffffff;rounded=0;exitX=0.5;exitY=0;exitDx=0;exitDy=0;exitPerimeter=0;entryX=0.5;entryY=0.8833333333333333;entryDx=0;entryDy=0;entryPerimeter=0;" edge="1" parent="1" source="9h3zB8wG0xILL8Boa0-e-20" target="9h3zB8wG0xILL8Boa0-e-21">
            <mxGeometry relative="1" as="geometry">
              <mxPoint x="10" as="offset" />
              <Array as="points" />
            </mxGeometry>
          </mxCell>
        </UserObject>
        <UserObject label="" tags="Connector" id="9h3zB8wG0xILL8Boa0-e-68">
          <mxCell style="vsdxID=58;edgeStyle=none;startArrow=none;endArrow=block;startSize=5;endSize=5;strokeColor=#5088bb;spacingTop=0;spacingBottom=0;spacingLeft=0;spacingRight=0;verticalAlign=middle;html=1;labelBackgroundColor=#ffffff;rounded=0;exitX=0;exitY=0.5;exitDx=0;exitDy=0;exitPerimeter=0;entryX=1;entryY=0.5;entryDx=0;entryDy=0;entryPerimeter=0;" edge="1" parent="1" source="9h3zB8wG0xILL8Boa0-e-21" target="9h3zB8wG0xILL8Boa0-e-22">
            <mxGeometry relative="1" as="geometry">
              <mxPoint as="offset" />
              <Array as="points" />
            </mxGeometry>
          </mxCell>
        </UserObject>
        <UserObject label="&lt;div style=&quot;font-size: 1px&quot;&gt;&lt;p style=&quot;text-align:center;margin-left:0;margin-right:0;margin-top:0px;margin-bottom:0px;text-indent:0;vertical-align:middle;direction:ltr;&quot;&gt;&lt;font style=&quot;font-size:11.29px;font-family:Calibri;color:#2e4f6c;direction:ltr;letter-spacing:0px;line-height:120%;opacity:1&quot;&gt;Yes&lt;br/&gt;&lt;/font&gt;&lt;/p&gt;&lt;/div&gt;" tags="Connector" id="9h3zB8wG0xILL8Boa0-e-69">
          <mxCell style="vsdxID=59;edgeStyle=none;startArrow=none;endArrow=block;startSize=5;endSize=5;strokeColor=#5088bb;spacingTop=0;spacingBottom=0;spacingLeft=0;spacingRight=0;verticalAlign=middle;html=1;labelBackgroundColor=#ffffff;rounded=0;align=center;exitX=0.4957983193277311;exitY=1;exitDx=0;exitDy=0;exitPerimeter=0;entryX=0.5;entryY=0;entryDx=0;entryDy=0;entryPerimeter=0;" edge="1" parent="1" source="9h3zB8wG0xILL8Boa0-e-22" target="9h3zB8wG0xILL8Boa0-e-24">
            <mxGeometry relative="1" as="geometry">
              <mxPoint x="10" y="-1" as="offset" />
              <Array as="points">
                <mxPoint x="650" y="427.34" />
                <mxPoint x="650.01" y="427.34" />
              </Array>
            </mxGeometry>
          </mxCell>
        </UserObject>
        <UserObject label="" tags="Connector" id="9h3zB8wG0xILL8Boa0-e-70">
          <mxCell style="vsdxID=60;edgeStyle=none;startArrow=none;endArrow=block;startSize=5;endSize=5;strokeColor=#5088bb;spacingTop=0;spacingBottom=0;spacingLeft=0;spacingRight=0;verticalAlign=middle;html=1;labelBackgroundColor=#ffffff;rounded=0;exitX=0.5;exitY=1;exitDx=0;exitDy=0;exitPerimeter=0;entryX=0.5;entryY=0;entryDx=0;entryDy=0;entryPerimeter=0;" edge="1" parent="1" source="9h3zB8wG0xILL8Boa0-e-24" target="9h3zB8wG0xILL8Boa0-e-25">
            <mxGeometry relative="1" as="geometry">
              <mxPoint x="-10" y="-1" as="offset" />
              <Array as="points">
                <mxPoint x="650" y="563.34" />
                <mxPoint x="649.99" y="563.34" />
              </Array>
            </mxGeometry>
          </mxCell>
        </UserObject>
        <UserObject label="&lt;div style=&quot;font-size: 1px&quot;&gt;&lt;p style=&quot;text-align:center;margin-left:0;margin-right:0;margin-top:0px;margin-bottom:0px;text-indent:0;vertical-align:middle;direction:ltr;&quot;&gt;&lt;font style=&quot;font-size:11.29px;font-family:Calibri;color:#2e4f6c;direction:ltr;letter-spacing:0px;line-height:120%;opacity:1&quot;&gt;&lt;br/&gt;&lt;/font&gt;&lt;/p&gt;&lt;/div&gt;" tags="Connector" id="9h3zB8wG0xILL8Boa0-e-71">
          <mxCell style="vsdxID=61;edgeStyle=none;startArrow=none;endArrow=block;startSize=5;endSize=5;strokeColor=#5088bb;spacingTop=0;spacingBottom=0;spacingLeft=0;spacingRight=0;verticalAlign=middle;html=1;labelBackgroundColor=#ffffff;rounded=0;align=center;exitX=1;exitY=0.5;exitDx=0;exitDy=0;exitPerimeter=0;entryX=0;entryY=0.5;entryDx=0;entryDy=0;entryPerimeter=0;" edge="1" parent="1" source="9h3zB8wG0xILL8Boa0-e-25" target="9h3zB8wG0xILL8Boa0-e-26">
            <mxGeometry relative="1" as="geometry">
              <mxPoint x="-1" as="offset" />
              <Array as="points" />
            </mxGeometry>
          </mxCell>
        </UserObject>
        <UserObject label="&lt;div style=&quot;font-size: 1px&quot;&gt;&lt;p style=&quot;text-align:center;margin-left:0;margin-right:0;margin-top:0px;margin-bottom:0px;text-indent:0;vertical-align:middle;direction:ltr;&quot;&gt;&lt;font style=&quot;font-size:11.29px;font-family:Calibri;color:#2e4f6c;direction:ltr;letter-spacing:0px;line-height:120%;opacity:1&quot;&gt;Yes&lt;br/&gt;&lt;/font&gt;&lt;/p&gt;&lt;/div&gt;" tags="Connector" id="9h3zB8wG0xILL8Boa0-e-72">
          <mxCell style="vsdxID=62;edgeStyle=none;startArrow=none;endArrow=block;startSize=5;endSize=5;strokeColor=#5088bb;spacingTop=0;spacingBottom=0;spacingLeft=0;spacingRight=0;verticalAlign=middle;html=1;labelBackgroundColor=#ffffff;rounded=0;align=center;exitX=0.5;exitY=0;exitDx=0;exitDy=0;exitPerimeter=0;entryX=0.5;entryY=0.8833333333333333;entryDx=0;entryDy=0;entryPerimeter=0;" edge="1" parent="1" source="9h3zB8wG0xILL8Boa0-e-26" target="9h3zB8wG0xILL8Boa0-e-20">
            <mxGeometry relative="1" as="geometry">
              <mxPoint x="10" y="14" as="offset" />
              <Array as="points">
                <mxPoint x="920" y="689.66" />
                <mxPoint x="920.02" y="689.66" />
              </Array>
            </mxGeometry>
          </mxCell>
        </UserObject>
        <UserObject label="" tags="Connector" id="9h3zB8wG0xILL8Boa0-e-73">
          <mxCell style="vsdxID=65;edgeStyle=none;startArrow=none;endArrow=block;startSize=5;endSize=5;strokeColor=#5088bb;spacingTop=0;spacingBottom=0;spacingLeft=0;spacingRight=0;verticalAlign=middle;html=1;labelBackgroundColor=#ffffff;rounded=0;exitX=1;exitY=0.5;exitDx=0;exitDy=0;exitPerimeter=0;entryX=0;entryY=0.5;entryDx=0;entryDy=0;" edge="1" parent="1" source="9h3zB8wG0xILL8Boa0-e-28" target="9h3zB8wG0xILL8Boa0-e-83">
            <mxGeometry relative="1" as="geometry">
              <mxPoint x="-1" as="offset" />
              <Array as="points" />
              <mxPoint x="1140" y="158" as="targetPoint" />
            </mxGeometry>
          </mxCell>
        </UserObject>
        <UserObject label="&lt;div style=&quot;font-size: 1px&quot;&gt;&lt;p style=&quot;text-align:center;margin-left:0;margin-right:0;margin-top:0px;margin-bottom:0px;text-indent:0;vertical-align:middle;direction:ltr;&quot;&gt;&lt;font style=&quot;font-size:11.29px;font-family:Calibri;color:#2e4f6c;direction:ltr;letter-spacing:0px;line-height:120%;opacity:1&quot;&gt;Email &lt;br/&gt;&lt;/font&gt;&lt;/p&gt;&lt;p style=&quot;text-align:center;margin-left:0;margin-right:0;margin-top:0px;margin-bottom:0px;text-indent:0;vertical-align:middle;direction:ltr;&quot;&gt;&lt;font style=&quot;font-size:11.29px;font-family:Calibri;color:#2e4f6c;direction:ltr;letter-spacing:0px;line-height:120%;opacity:1&quot;&gt;Confirmation&lt;br/&gt;&lt;/font&gt;&lt;/p&gt;&lt;/div&gt;" tags="Connector" id="9h3zB8wG0xILL8Boa0-e-74">
          <mxCell style="vsdxID=66;edgeStyle=none;startArrow=none;endArrow=block;startSize=5;endSize=5;strokeColor=#5088bb;spacingTop=0;spacingBottom=0;spacingLeft=0;spacingRight=0;verticalAlign=middle;html=1;labelBackgroundColor=#ffffff;rounded=0;align=center;entryX=0.5;entryY=0;entryDx=0;entryDy=0;entryPerimeter=0;exitX=0.5;exitY=1;exitDx=0;exitDy=0;exitPerimeter=0;" edge="1" parent="1" source="9h3zB8wG0xILL8Boa0-e-89" target="9h3zB8wG0xILL8Boa0-e-30">
            <mxGeometry relative="1" as="geometry">
              <mxPoint x="-95" y="-46" as="offset" />
              <Array as="points">
                <mxPoint x="1580" y="208" />
              </Array>
              <mxPoint x="1540" y="158" as="sourcePoint" />
            </mxGeometry>
          </mxCell>
        </UserObject>
        <mxCell id="9h3zB8wG0xILL8Boa0-e-91" value="Yes" style="edgeLabel;html=1;align=center;verticalAlign=middle;resizable=0;points=[];" vertex="1" connectable="0" parent="9h3zB8wG0xILL8Boa0-e-74">
          <mxGeometry x="0.1482" relative="1" as="geometry">
            <mxPoint as="offset" />
          </mxGeometry>
        </mxCell>
        <UserObject label="" tags="Connector" id="9h3zB8wG0xILL8Boa0-e-75">
          <mxCell style="vsdxID=67;edgeStyle=none;startArrow=none;endArrow=block;startSize=5;endSize=5;strokeColor=#5088bb;spacingTop=0;spacingBottom=0;spacingLeft=0;spacingRight=0;verticalAlign=middle;html=1;labelBackgroundColor=#ffffff;rounded=0;exitX=0.5;exitY=1;exitDx=0;exitDy=0;exitPerimeter=0;entryX=0.5;entryY=0;entryDx=0;entryDy=0;entryPerimeter=0;" edge="1" parent="1" source="9h3zB8wG0xILL8Boa0-e-30" target="9h3zB8wG0xILL8Boa0-e-31">
            <mxGeometry relative="1" as="geometry">
              <mxPoint x="10" y="-1" as="offset" />
              <Array as="points" />
            </mxGeometry>
          </mxCell>
        </UserObject>
        <UserObject label="" tags="Connector" id="9h3zB8wG0xILL8Boa0-e-76">
          <mxCell style="vsdxID=68;edgeStyle=none;startArrow=none;endArrow=block;startSize=5;endSize=5;strokeColor=#5088bb;spacingTop=0;spacingBottom=0;spacingLeft=0;spacingRight=0;verticalAlign=middle;html=1;labelBackgroundColor=#ffffff;rounded=0;exitX=1;exitY=0.5;exitDx=0;exitDy=0;exitPerimeter=0;entryX=0;entryY=0.7166666666666667;entryDx=0;entryDy=0;entryPerimeter=0;" edge="1" parent="1" source="9h3zB8wG0xILL8Boa0-e-31" target="9h3zB8wG0xILL8Boa0-e-32">
            <mxGeometry relative="1" as="geometry">
              <mxPoint as="offset" />
              <Array as="points">
                <mxPoint x="1649.34" y="735" />
                <mxPoint x="1649.34" y="563.79" />
              </Array>
            </mxGeometry>
          </mxCell>
        </UserObject>
        <UserObject label="" tags="Connector" id="9h3zB8wG0xILL8Boa0-e-77">
          <mxCell style="vsdxID=69;edgeStyle=none;startArrow=none;endArrow=block;startSize=5;endSize=5;strokeColor=#5088bb;spacingTop=0;spacingBottom=0;spacingLeft=0;spacingRight=0;verticalAlign=middle;html=1;labelBackgroundColor=#ffffff;rounded=0;exitX=1;exitY=0.5;exitDx=0;exitDy=0;exitPerimeter=0;entryX=0;entryY=0.6666666666666666;entryDx=0;entryDy=0;entryPerimeter=0;" edge="1" parent="1" source="9h3zB8wG0xILL8Boa0-e-31" target="9h3zB8wG0xILL8Boa0-e-33">
            <mxGeometry relative="1" as="geometry">
              <mxPoint y="-1" as="offset" />
              <Array as="points">
                <mxPoint x="1649.34" y="735" />
                <mxPoint x="1649.34" y="300.28" />
              </Array>
            </mxGeometry>
          </mxCell>
        </UserObject>
        <UserObject label="" tags="Connector" id="9h3zB8wG0xILL8Boa0-e-78">
          <mxCell style="vsdxID=70;edgeStyle=none;startArrow=none;endArrow=block;startSize=5;endSize=5;strokeColor=#5088bb;spacingTop=0;spacingBottom=0;spacingLeft=0;spacingRight=0;verticalAlign=middle;html=1;labelBackgroundColor=#ffffff;rounded=0;exitX=1;exitY=0.5;exitDx=0;exitDy=0;exitPerimeter=0;entryX=0;entryY=0.75;entryDx=0;entryDy=0;entryPerimeter=0;" edge="1" parent="1" source="9h3zB8wG0xILL8Boa0-e-31" target="9h3zB8wG0xILL8Boa0-e-34">
            <mxGeometry relative="1" as="geometry">
              <mxPoint as="offset" />
              <Array as="points">
                <mxPoint x="1649.34" y="735" />
                <mxPoint x="1649.34" y="165.15" />
              </Array>
            </mxGeometry>
          </mxCell>
        </UserObject>
        <UserObject label="" tags="Connector" id="9h3zB8wG0xILL8Boa0-e-79">
          <mxCell style="vsdxID=71;edgeStyle=none;startArrow=none;endArrow=block;startSize=5;endSize=5;strokeColor=#5088bb;spacingTop=0;spacingBottom=0;spacingLeft=0;spacingRight=0;verticalAlign=middle;html=1;labelBackgroundColor=#ffffff;rounded=0;exitX=1;exitY=0.5;exitDx=0;exitDy=0;exitPerimeter=0;entryX=0;entryY=0.5;entryDx=0;entryDy=0;entryPerimeter=0;" edge="1" parent="1" source="9h3zB8wG0xILL8Boa0-e-34" target="9h3zB8wG0xILL8Boa0-e-35">
            <mxGeometry relative="1" as="geometry">
              <mxPoint as="offset" />
              <Array as="points" />
            </mxGeometry>
          </mxCell>
        </UserObject>
        <UserObject label="" tags="Connector" id="9h3zB8wG0xILL8Boa0-e-80">
          <mxCell style="vsdxID=72;edgeStyle=none;startArrow=none;endArrow=block;startSize=5;endSize=5;strokeColor=#5088bb;spacingTop=0;spacingBottom=0;spacingLeft=0;spacingRight=0;verticalAlign=middle;html=1;labelBackgroundColor=#ffffff;rounded=0;exitX=1;exitY=0.5;exitDx=0;exitDy=0;exitPerimeter=0;entryX=0;entryY=0.5;entryDx=0;entryDy=0;entryPerimeter=0;" edge="1" parent="1" source="9h3zB8wG0xILL8Boa0-e-33" target="9h3zB8wG0xILL8Boa0-e-36">
            <mxGeometry relative="1" as="geometry">
              <mxPoint as="offset" />
              <Array as="points">
                <mxPoint x="1849.34" y="290" />
                <mxPoint x="1849.34" y="290.01" />
              </Array>
            </mxGeometry>
          </mxCell>
        </UserObject>
        <UserObject label="" tags="Connector" id="9h3zB8wG0xILL8Boa0-e-81">
          <mxCell style="vsdxID=73;edgeStyle=none;startArrow=none;endArrow=block;startSize=5;endSize=5;strokeColor=#5088bb;spacingTop=0;spacingBottom=0;spacingLeft=0;spacingRight=0;verticalAlign=middle;html=1;labelBackgroundColor=#ffffff;rounded=0;exitX=1;exitY=0.5;exitDx=0;exitDy=0;exitPerimeter=0;entryX=0;entryY=0.5;entryDx=0;entryDy=0;entryPerimeter=0;" edge="1" parent="1" source="9h3zB8wG0xILL8Boa0-e-32" target="9h3zB8wG0xILL8Boa0-e-37">
            <mxGeometry relative="1" as="geometry">
              <mxPoint as="offset" />
              <Array as="points" />
            </mxGeometry>
          </mxCell>
        </UserObject>
        <UserObject label="&lt;div style=&quot;font-size: 1px&quot;&gt;&lt;p style=&quot;text-align:center;margin-left:0;margin-right:0;margin-top:0px;margin-bottom:0px;text-indent:0;vertical-align:middle;direction:ltr;&quot;&gt;&lt;font style=&quot;font-size:11.29px;font-family:Calibri;color:#2e4f6c;direction:ltr;letter-spacing:0px;line-height:120%;opacity:1&quot;&gt;No&lt;br/&gt;&lt;/font&gt;&lt;/p&gt;&lt;/div&gt;" tags="Connector" id="9h3zB8wG0xILL8Boa0-e-82">
          <mxCell style="vsdxID=87;edgeStyle=none;startArrow=none;endArrow=block;startSize=5;endSize=5;strokeColor=#5088bb;spacingTop=0;spacingBottom=0;spacingLeft=0;spacingRight=0;verticalAlign=middle;html=1;labelBackgroundColor=#ffffff;rounded=0;align=center;exitX=1;exitY=0.5135135135135135;exitDx=0;exitDy=0;exitPerimeter=0;entryX=0;entryY=0.5;entryDx=0;entryDy=0;entryPerimeter=0;" edge="1" parent="1" source="9h3zB8wG0xILL8Boa0-e-3" target="9h3zB8wG0xILL8Boa0-e-46">
            <mxGeometry relative="1" as="geometry">
              <mxPoint as="offset" />
              <Array as="points" />
            </mxGeometry>
          </mxCell>
        </UserObject>
        <mxCell id="9h3zB8wG0xILL8Boa0-e-86" style="edgeStyle=orthogonalEdgeStyle;rounded=0;orthogonalLoop=1;jettySize=auto;html=1;exitX=0.5;exitY=1;exitDx=0;exitDy=0;entryX=0.486;entryY=0.174;entryDx=0;entryDy=0;entryPerimeter=0;" edge="1" parent="1" source="9h3zB8wG0xILL8Boa0-e-83" target="9h3zB8wG0xILL8Boa0-e-85">
          <mxGeometry relative="1" as="geometry" />
        </mxCell>
        <mxCell id="9h3zB8wG0xILL8Boa0-e-88" value="Yes" style="edgeLabel;html=1;align=center;verticalAlign=middle;resizable=0;points=[];" vertex="1" connectable="0" parent="9h3zB8wG0xILL8Boa0-e-86">
          <mxGeometry x="-0.1253" relative="1" as="geometry">
            <mxPoint as="offset" />
          </mxGeometry>
        </mxCell>
        <mxCell id="9h3zB8wG0xILL8Boa0-e-83" value="&lt;font style=&quot;font-size: 9px;&quot;&gt;Observations Found?&lt;/font&gt;" style="rhombus;whiteSpace=wrap;html=1;" vertex="1" parent="1">
          <mxGeometry x="1150" y="118" width="80" height="80" as="geometry" />
        </mxCell>
        <mxCell id="9h3zB8wG0xILL8Boa0-e-84" value="No" style="edgeStyle=orthogonalEdgeStyle;rounded=0;orthogonalLoop=1;jettySize=auto;html=1;entryX=0;entryY=0.5;entryDx=0;entryDy=0;entryPerimeter=0;" edge="1" parent="1" source="9h3zB8wG0xILL8Boa0-e-83" target="9h3zB8wG0xILL8Boa0-e-29">
          <mxGeometry relative="1" as="geometry" />
        </mxCell>
        <mxCell id="9h3zB8wG0xILL8Boa0-e-85" value="Intimation&amp;nbsp;&lt;div&gt;to Technical Team&lt;/div&gt;" style="html=1;strokeWidth=2;shape=manualInput;whiteSpace=wrap;rounded=1;size=26;arcSize=11;" vertex="1" parent="1">
          <mxGeometry x="1245" y="244" width="100" height="60" as="geometry" />
        </mxCell>
        <mxCell id="9h3zB8wG0xILL8Boa0-e-87" style="edgeStyle=orthogonalEdgeStyle;rounded=0;orthogonalLoop=1;jettySize=auto;html=1;exitX=0.5;exitY=1;exitDx=0;exitDy=0;entryX=0.727;entryY=-0.017;entryDx=0;entryDy=0;entryPerimeter=0;" edge="1" parent="1" source="9h3zB8wG0xILL8Boa0-e-85" target="9h3zB8wG0xILL8Boa0-e-14">
          <mxGeometry relative="1" as="geometry" />
        </mxCell>
        <mxCell id="9h3zB8wG0xILL8Boa0-e-89" value="Migration Needed?" style="strokeWidth=2;html=1;shape=mxgraph.flowchart.decision;whiteSpace=wrap;" vertex="1" parent="1">
          <mxGeometry x="1450" y="108" width="100" height="100" as="geometry" />
        </mxCell>
        <mxCell id="9h3zB8wG0xILL8Boa0-e-90" style="edgeStyle=orthogonalEdgeStyle;rounded=0;orthogonalLoop=1;jettySize=auto;html=1;exitX=1;exitY=0.5;exitDx=0;exitDy=0;exitPerimeter=0;entryX=0;entryY=0.5;entryDx=0;entryDy=0;entryPerimeter=0;" edge="1" parent="1" source="9h3zB8wG0xILL8Boa0-e-29" target="9h3zB8wG0xILL8Boa0-e-89">
          <mxGeometry relative="1" as="geometry" />
        </mxCell>
        <mxCell id="9h3zB8wG0xILL8Boa0-e-92" value="Hold" style="strokeWidth=2;html=1;shape=mxgraph.flowchart.start_2;whiteSpace=wrap;" vertex="1" parent="1">
          <mxGeometry x="1570" y="56" width="50" height="50" as="geometry" />
        </mxCell>
        <mxCell id="9h3zB8wG0xILL8Boa0-e-93" style="edgeStyle=orthogonalEdgeStyle;rounded=0;orthogonalLoop=1;jettySize=auto;html=1;exitX=0.5;exitY=0;exitDx=0;exitDy=0;exitPerimeter=0;entryX=0;entryY=0.5;entryDx=0;entryDy=0;entryPerimeter=0;" edge="1" parent="1" source="9h3zB8wG0xILL8Boa0-e-89" target="9h3zB8wG0xILL8Boa0-e-92">
          <mxGeometry relative="1" as="geometry" />
        </mxCell>
        <mxCell id="9h3zB8wG0xILL8Boa0-e-94" value="No" style="edgeLabel;html=1;align=center;verticalAlign=middle;resizable=0;points=[];" vertex="1" connectable="0" parent="9h3zB8wG0xILL8Boa0-e-93">
          <mxGeometry x="0.2577" y="-3" relative="1" as="geometry">
            <mxPoint as="offset" />
          </mxGeometry>
        </mxCell>
        <mxCell id="9h3zB8wG0xILL8Boa0-e-96" style="edgeStyle=orthogonalEdgeStyle;rounded=0;orthogonalLoop=1;jettySize=auto;html=1;exitX=0.5;exitY=1;exitDx=0;exitDy=0;exitPerimeter=0;entryX=1;entryY=0.5;entryDx=0;entryDy=0;entryPerimeter=0;" edge="1" parent="1" source="9h3zB8wG0xILL8Boa0-e-92" target="9h3zB8wG0xILL8Boa0-e-89">
          <mxGeometry relative="1" as="geometry" />
        </mxCell>
        <mxCell id="9h3zB8wG0xILL8Boa0-e-97" value="Resume" style="edgeLabel;html=1;align=center;verticalAlign=middle;resizable=0;points=[];" vertex="1" connectable="0" parent="9h3zB8wG0xILL8Boa0-e-96">
          <mxGeometry x="-0.2165" y="-3" relative="1" as="geometry">
            <mxPoint as="offset" />
          </mxGeometry>
        </mxCell>
      </root>
    </mxGraphModel>
  </diagram>
</mxfile>
